<svg width="54" height="54" viewBox="0 0 54 54" fill="none" xmlns="http://www.w3.org/2000/svg">
<path d="M45 7.84293C42.525 7.84293 38.7 1.96073 38.7 1.96073C38.025 0.980364 36.9 0 36 0C35.1 0 33.975 0.980364 33.3 1.96073C33.3 1.96073 30.375 7.84293 27 7.84293C24.525 7.84293 20.7 1.96073 20.7 1.96073C20.025 0.980364 18.9 0 18 0C17.1 0 15.3 1.96073 15.3 1.96073C13.5 5.39201 11.475 7.84293 9 7.84293C6.525 7.84293 2.7 1.96073 2.7 1.96073C2.025 0.980364 0.9 0 0 0V4.90183C0.9 4.90183 2.025 5.88219 2.7 6.86256C2.7 6.86256 6.525 12.7448 9 12.7448C11.475 12.7448 13.5 10.2938 15.3 6.86256C15.3 6.86256 16.875 4.90183 18 4.90183C19.125 4.90183 20.025 5.88219 20.7 6.86256C20.7 6.86256 24.525 12.7448 27 12.7448C30.375 12.7448 33.3 6.86256 33.3 6.86256C33.975 5.88219 34.875 4.90183 36 4.90183C37.125 4.90183 38.025 5.88219 38.7 6.86256C38.7 6.86256 42.525 12.7448 45 12.7448C47.475 12.7448 49.5 10.2938 51.3 6.86256C51.3 6.86256 52.875 4.90183 54 4.90183V0C53.1 0 51.3 1.96073 51.3 1.96073C49.5 5.39201 47.475 7.84293 45 7.84293Z" fill="#418679"/>
<path d="M45 28.4705C42.525 28.4705 38.7 22.5883 38.7 22.5883C38.025 21.6079 36.9 20.6276 36 20.6276C35.1 20.6276 33.975 21.6079 33.3 22.5883C33.3 22.5883 30.375 28.4705 27 28.4705C24.525 28.4705 20.7 22.5883 20.7 22.5883C20.025 21.6079 18.9 20.6276 18 20.6276C17.1 20.6276 15.3 22.5883 15.3 22.5883C13.5 26.0196 11.475 28.4705 9 28.4705C6.525 28.4705 2.7 22.5883 2.7 22.5883C2.025 21.6079 0.9 20.6276 0 20.6276V25.5294C0.9 25.5294 2.025 26.5098 2.7 27.4901C2.7 27.4901 6.525 33.3723 9 33.3723C11.475 33.3723 13.5 30.9214 15.3 27.4901C15.3 27.4901 16.875 25.5294 18 25.5294C19.125 25.5294 20.025 26.5098 20.7 27.4901C20.7 27.4901 24.525 33.3723 27 33.3723C30.375 33.3723 33.3 27.4901 33.3 27.4901C33.975 26.5098 34.875 25.5294 36 25.5294C37.125 25.5294 38.025 26.5098 38.7 27.4901C38.7 27.4901 42.525 33.3723 45 33.3723C47.475 33.3723 49.5 30.9214 51.3 27.4901C51.3 27.4901 52.875 25.5294 54 25.5294V20.6276C53.1 20.6276 51.3 22.5883 51.3 22.5883C49.5 26.0196 47.475 28.4705 45 28.4705Z" fill="#418679"/>
<path d="M45 49.0982C42.525 49.0982 38.7 43.216 38.7 43.216C38.025 42.2356 36.9 41.2552 36 41.2552C35.1 41.2552 33.975 42.2356 33.3 43.216C33.3 43.216 30.375 49.0982 27 49.0982C24.525 49.0982 20.7 43.216 20.7 43.216C20.025 42.2356 18.9 41.2552 18 41.2552C17.1 41.2552 15.3 43.216 15.3 43.216C13.5 46.6473 11.475 49.0982 9 49.0982C6.525 49.0982 2.7 43.216 2.7 43.216C2.025 42.2356 0.9 41.2552 0 41.2552V46.1571C0.9 46.1571 2.025 47.1374 2.7 48.1178C2.7 48.1178 6.525 54 9 54C11.475 54 13.5 51.5491 15.3 48.1178C15.3 48.1178 16.875 46.1571 18 46.1571C19.125 46.1571 20.025 47.1374 20.7 48.1178C20.7 48.1178 24.525 54 27 54C30.375 54 33.3 48.1178 33.3 48.1178C33.975 47.1374 34.875 46.1571 36 46.1571C37.125 46.1571 38.025 47.1374 38.7 48.1178C38.7 48.1178 42.525 54 45 54C47.475 54 49.5 51.5491 51.3 48.1178C51.3 48.1178 52.875 46.1571 54 46.1571V41.2552C53.1 41.2552 51.3 43.216 51.3 43.216C49.5 46.6473 47.475 49.0982 45 49.0982Z" fill="#418679"/>
</svg>
