<?xml version="1.0" encoding="utf-8"?>
<!-- Generator: Adobe Illustrator 16.0.0, SVG Export Plug-In . SVG Version: 6.00 Build 0)  -->
<!DOCTYPE svg PUBLIC "-//W3C//DTD SVG 1.1//EN" "http://www.w3.org/Graphics/SVG/1.1/DTD/svg11.dtd">
<svg version="1.1" id="Layer_1" xmlns="http://www.w3.org/2000/svg" xmlns:xlink="http://www.w3.org/1999/xlink" x="0px" y="0px"
	 width="612px" height="792px" viewBox="0 0 612 792" enable-background="new 0 0 612 792" xml:space="preserve">
<path fill="#418679" stroke="#707070" stroke-miterlimit="10" d="M9137.039,4320.021"/>
<path fill="#418679" stroke="#707070" stroke-miterlimit="10" d="M9310.336,4141.275c0,0-24.277-24.275-85.926,0
	c0,0-119.563-111.139-235.375,26.153c0,0-163.445-3.733-155.039,151.308c0,0-193.352,113.016,10.281,204.551
	c0,0,89.656,136.373,209.223,31.763c0,0,153.184,113.954,209.223-16.81c0,0,127.031,149.451,203.611,5.608
	c0,0,136.373,132.621,237.232-13.076c0,0,246.656,92.412,231.641-198.513c0,0-44.838-81.703-102.734-76.092
	c0,0-35.496-196.146-179.336-145.696c0,0-173.727-85.925-252.184,24.274C9400.932,4134.749,9330.594,4131.361,9310.336,4141.275z"/>
<path opacity="0.33" fill="#418679" stroke="#707070" stroke-miterlimit="10" enable-background="new    " d="M9432.857,4183.178
	c0,0,99.775-129.028,189.68,0c0,0,139.494-57.242,172.564,85.601c2.059,8.873,0,36.435,0,36.435s61.648-1.408,96.676,47.635
	c0,0,33.617,165.319-165.324,147.104c0,0,0.736-11.628-60.668,48.613l37.781-17.81c0,0,161.506,61.647,232.293-88.271
	c0,0,39.965-130.295-88.922-186.334c0,0-42.494-194.738-211.793-142.901c0,0-131.457-99.471-225.34,18.217
	c0,0-54.631,26.356,16.811,51.714"/>
<path opacity="0.33" fill="#418679" stroke="#707070" stroke-miterlimit="10" enable-background="new    " d="M9262.008,4206.822
	c0,0-102.041-153.408-191.943-19.156c0,0-137.211-40.412-170.299,108.223c-2.063,9.24,0,37.902,0,37.902
	s-69.789-7.977-86.273,51.674c-16.461,59.527-2.631,123.113,197.023,132.15c17.953,0.815,105.773,19.85,18.586,69.4
	c0,0-10.977-7.1-15.076-8.445c-62.303-20.746-142.902-18.91-238.477-109.978c0,0-19.014-114.771,73.848-162.75
	c0,0-2.795-149.676,210.324-171.789c0,0,12.443-93.493,279.338,19.992c0,0,0.633,26.377-70.809,52.754"/>
<ellipse opacity="0.33" fill="#418679" stroke="#707070" stroke-miterlimit="10" enable-background="new    " cx="9553.055" cy="4226.895" rx="235.375" ry="128.275"/>
<path opacity="0.33" fill="#418679" stroke="#707070" stroke-miterlimit="10" enable-background="new    " d="M9251.889,4236.646
	c-41.105,38.74-84.967,111.242-189.801,111.242s-189.803-49.797-189.803-111.242c0-37.025,56.957-55.672,116.75-82.273
	c39.453-17.544,74.154-51.061,115.813-51.061C9209.682,4103.292,9304.012,4187.523,9251.889,4236.646z"/>
<path fill="#418679" stroke="#707070" stroke-miterlimit="10" d="M9924.865,4294.093c-18.912-21.521-38.088-36.046-60.385-45.737
	c-4.078-1.754-8.18-3.305-12.383-4.67c-11.504-59.996-37.861-103.307-78.539-128.746c-39.004-24.459-80.947-31.231-123.949-19.217
	c-14.791-13.708-31.969-24.847-50.227-32.537c-49-20.625-104.896-15.382-153.449,14.198c-5.426,3.325-10.648,6.937-14.748,10.24
	c-15.504,10.874-28.682,24.542-38.617,39.964c-11.158-1.387-22.439-1.693-34.373-0.959c-7.264,0.449-14.506,1.855-21.809,3.732
	c-34.252-18.176-70.605-22.889-107.711-12.606c-14.16-13.015-30.52-23.623-47.859-30.905
	c-46.98-19.768-100.695-14.791-147.371,13.647c-5.201,3.162-10.18,6.63-14.137,9.792c-14.77,10.363-27.314,23.357-36.82,38.025
	c-10.609-1.307-21.195-1.57-32.52-0.877c-20.439,1.244-40.555,8.221-63.301,21.908c-29.641,17.871-51.773,49.227-64.016,90.739
	c-4.18,14.198-6.037,29.765-5.508,45.735c-25.723,8.223-48.305,24.379-63.484,45.778c-37.779,53.325-32.211,123.89,12.955,164.14
	c21.787,19.42,50.225,29.601,81.193,27.987c19.461,30.274,47.225,52.326,77.58,61.282c26.256,7.711,49.369,9.18,70.768,4.508
	c24.277-5.324,45.41-16.034,64.301-32.619c28.031,23.459,66.258,36.82,104.428,36.82c8.221,0,16.443-0.611,24.561-1.896
	c32.07-5.039,62.242-19.604,87.293-42.125c16.564,16.033,35.516,28.213,55.895,34.189c27.336,8.059,51.449,9.607,73.645,4.713
	c25.52-5.569,47.715-16.871,67.463-34.416c29.254,24.727,69.299,38.801,109.324,38.801c8.588,0,17.115-0.633,25.561-1.979
	c39.148-6.119,75.398-25.887,103.408-56.182c59.936,24.867,131.906,16.035,179.764-23.275
	c36.781-30.172,61.078-71.645,66.73-113.813C9964.828,4370.695,9952.568,4325.652,9924.865,4294.093z M9183.875,4576.408
	c-39.289,6.059-81.598-7.1-110.586-36.76c-3.488-3.693-9.711-4.387-14.77-4.203c-5.082,0.104-11.18,3.814-14.506,7.671
	c-16.279,16.687-33.924,26.642-55.51,31.396c-15.34,3.326-32.68,2.041-52.977-3.896c-24.645-7.263-47.391-27.069-62.363-54.388
	c-3.59-6.547-10.711-10.383-18.258-9.119c-24.133,3.47-47.613-3.121-64.402-18.135c-35.906-32.008-30.684-83.967-7.57-116.606
	c12.873-18.155,33.498-30.967,56.59-35.229c9.383-1.734,15.789-10.526,14.547-19.992c-2.164-16.545-1.145-32.742,3.039-46.92
	c6.711-22.828,20.543-53.551,48.123-70.135c17.605-10.608,32.537-15.953,46.982-16.83c12.668-0.715,24.254-0.063,36.209,2.306
	c7.955,1.591,15.811-2.326,19.441-9.466c7.242-14.178,18.318-26.785,32.865-37.025c3.65-2.877,7.445-5.508,11.402-7.916
	c36.74-22.379,78.602-26.479,114.811-11.22c16.219,6.834,31.396,17.381,43.861,30.538c4.875,5.141,14.279,6.223,20.887,3.836
	c19.504-6.938,39.047-7.527,58.447-3.102c-29.643,18.83-51.979,50.674-64.404,92.778c-4.406,14.976-6.324,31.416-5.711,48.228
	c-27.01,8.485-50.734,25.396-66.605,47.815c-39.291,55.429-33.52,128.808,13.441,170.667c22.768,20.298,53.246,30.416,84.824,29.05
	c0.613,0.979,1.408,1.754,2.039,2.713c-0.184,0.163-0.426,0.203-0.609,0.367C9233.121,4560.803,9209.191,4572.432,9183.875,4576.408
	z M9922.969,4412.984c-4.469,33.271-24.133,66.401-53.938,90.86c-40.535,33.211-103.715,38.679-153.551,13.097
	c-7.449-3.854-16.852-1.957-22.195,4.754c-23.461,29.313-55.512,48.449-90.191,53.896c-41.719,6.386-86.027-7.485-116.543-38.737
	c-3.203-3.408-8.754-4.162-13.566-4.162c-0.43,0-0.879,0-1.266,0.021c-5.121,0.122-11.262,3.896-14.586,7.772
	c-17.195,17.625-35.824,28.131-58.527,33.108c-16.156,3.549-34.457,2.203-55.836-4.101c-26.008-7.631-50-28.521-65.789-57.305
	c-3.57-6.549-10.691-10.18-18.258-9.119c-25.645,3.57-50.348-3.346-68.055-19.135c-37.945-33.844-32.457-88.721-8.039-123.176
	c13.566-19.154,35.355-32.723,59.734-37.189c9.383-1.732,15.809-10.524,14.543-20.012c-2.324-17.4-1.203-34.496,3.203-49.409
	c7.078-24.03,21.625-56.365,50.734-73.929c18.484-11.14,34.211-16.771,49.531-17.709c13.344-0.896,25.523-0.062,38.09,2.408
	c8.18,1.57,15.809-2.326,19.441-9.445c7.668-14.973,19.359-28.273,34.68-39.045c3.813-3.02,7.793-5.794,11.996-8.344
	c38.695-23.563,82.742-27.888,120.887-11.791c17.16,7.222,33.152,18.317,46.145,32.129c4.855,5.121,14.324,6.121,21.016,3.836
	c33.883-11.996,69.051-7.486,101.918,13.117c33.922,21.276,55.508,60.099,64.094,115.342c1.145,7.222,6.531,13.057,13.672,14.709
	c6.078,1.428,12.074,3.346,17.91,5.875c17.461,7.588,32.168,18.85,47.676,36.516
	C9918.766,4341.523,9927.926,4376.223,9922.969,4412.984z"/>
<path fill="#418679" stroke="#707070" stroke-miterlimit="10" d="M2283.842,8509.305l24.153-13.995l19.38-11.22h595.843
	l263.548,12.607c0,0,119.178,14.893,16.034,88.23l-54.998,217.709h-788.338l-56.671-199.92
	C2302.771,8602.715,2267.563,8513.038,2283.842,8509.305z"/>
<path fill="#418679" stroke="#707070" stroke-miterlimit="10" d="M2312.85,8588.211l890.072-10.403l34.354-46.92l-1.062-31.926
	l-934.522-1.143C2301.712,8497.819,2229.129,8465.057,2312.85,8588.211z"/>
<polygon fill="#418679" stroke="#707070" stroke-miterlimit="10" points="2332.189,8427.562 2364.278,8483.723 2393.695,8477.031 
	2354.936,8416.198 "/>
<polygon fill="#418679" stroke="#707070" stroke-miterlimit="10" points="3122.424,8454.306 3226.709,8347.349 3174.566,8477.031 
	3107.716,8477.031 "/>
<path fill="#418679" stroke="#707070" stroke-miterlimit="10" d="M3087.643,8484.09c0,0,42.778-246.391,102.959-267.791
	c60.158-21.4-6.691,0-6.691,0s-159.12,44.125-141.739,260.732L3087.643,8484.09z"/>
<path fill="#418679" stroke="#707070" stroke-miterlimit="10" d="M3016.793,8470.36c0,0-100.287-185.864-188.537-215.261
	l137.721,221.952L3016.793,8470.36z"/>
<polygon fill="#418679" stroke="#707070" stroke-miterlimit="10" points="2941.904,8463.669 2859.02,8403.489 2900.451,8493.861 "/>
<path fill="#418679" stroke="#707070" stroke-miterlimit="10" d="M2559.506,8470.36c4.021,0,104.285-114.994,104.285-114.994
	l-30.742,121.665L2559.506,8470.36z"/>
<path fill="#418679" stroke="#707070" stroke-miterlimit="10" d="M2645.084,8228.335c0,0-84.189,139.883-106.957,248.696h-52.143
	C2485.965,8477.031,2510.036,8224.337,2645.084,8228.335z"/>
<path fill="#418679" stroke="#707070" stroke-miterlimit="10" d="M2468.584,8456.979c0,0-129.643-202.572-180.5-201.899
	l124.359,225.971h56.159v-24.071H2468.584z"/>
<path fill="#418679" stroke="#707070" stroke-miterlimit="10" d="M2800.186,8168.176c0,0-40.105-172.482,185.864-197.881
	c0,0,142.902-0.081,151.083-16.034C3137.133,7954.24,3030.154,8296.532,2800.186,8168.176z"/>
<path fill="#418679" stroke="#707070" stroke-miterlimit="10" d="M2727.97,8089.289c2.407-3.488,38.78-213.936-291.476-243.352
	c0,0-5.346,154.569,101.611,250.451C2538.105,8096.367,2647.757,8205.609,2727.97,8089.289z"/>
<path fill="#418679" stroke="#707070" stroke-miterlimit="10" d="M3137.133,7954.24c0,0-328.93,225.971-346.311,225.971
	c0,0-20.055-169.44,151.082-202.388L3137.133,7954.24z"/>
<path fill="#418679" stroke="#707070" stroke-miterlimit="10" d="M2711.936,8113.34l-294.168-267.424
	C2417.768,7845.938,2491.309,8210.954,2711.936,8113.34z"/>
<path fill="#418679" stroke="#707070" stroke-miterlimit="10" d="M2850.98,7883.371c0,0,23.338,78.887,112.629,12.036
	c0,0,55.183,34.763,80.58-41.453c0,0,82.905-17.38,42.127-89.576c0,0,58.832-48.144-14.709-98.94c0,0,5.345-75.541-68.851-78.213
	c0,0-72.195-55.487-99.613-12.037c0,0-84.23-8.688-86.903,48.146c0,0-79.561,20.054-53.488,88.924c0,0-38.107,64.853,20.053,102.959
	C2782.805,7815.174,2782.805,7901.425,2850.98,7883.371z"/>
<path fill="#418679" stroke="#707070" stroke-miterlimit="10" d="M2955.287,7694.834"/>
<ellipse transform="matrix(-0.245 0.9695 -0.9695 -0.245 11124.0449 6673.2373)" fill="#418679" stroke="#707070" stroke-miterlimit="10" cx="2963.691" cy="7667.944" rx="52.445" ry="5.222"/>
<ellipse transform="matrix(-0.3239 0.9461 -0.9461 -0.3239 11302.3359 7423.0508)" fill="#418679" stroke="#707070" stroke-miterlimit="10" cx="2998.91" cy="7749.854" rx="5.223" ry="52.449"/>
<ellipse transform="matrix(-0.9987 0.0507 -0.0507 -0.9987 6274.8462 15442.4141)" fill="#418679" stroke="#707070" stroke-miterlimit="10" cx="2941.627" cy="7800.767" rx="5.222" ry="52.447"/>
<ellipse transform="matrix(-0.7071 0.7072 -0.7072 -0.7071 10363.0342 11094.6494)" fill="#418679" stroke="#707070" stroke-miterlimit="10" cx="2883.525" cy="7693.78" rx="5.222" ry="52.448"/>
<ellipse transform="matrix(-0.7071 0.7072 -0.7072 -0.7071 10410.0098 11233.1113)" fill="#418679" stroke="#707070" stroke-miterlimit="10" cx="2878.334" cy="7772.74" rx="52.452" ry="5.223"/>
<circle opacity="0.16" fill="#418679" stroke="#707070" stroke-miterlimit="10" enable-background="new    " cx="2938.375" cy="7728.862" r="71.849"/>
<path fill="#418679" stroke="#707070" stroke-miterlimit="10" d="M3275.077,8312.832c-4.061-5.691-11.403-7.732-17.974-5.142
	c-4.223,1.775-97.979,43.064-148.471,147.043c21.646-173.339,122.543-250.206,123.583-250.981
	c5.814-4.304,7.731-12.117,4.591-18.584c-3.142-6.467-10.322-9.895-17.423-7.916c-171.276,46.839-195.411,233.193-197.899,259.061
	c-32.537-56.08-62.935-99.92-90.394-129.356c-31.803-34.17-84.782-72.542-138.147-77.806c-6.732-0.633-12.853,3.142-15.342,9.281
	c-2.509,6.141-0.651,13.199,4.529,17.34c0.815,0.674,67.115,55.061,124.645,149.35c-15.771-12.587-32.578-24.256-51.307-34.15
	c-6.1-3.183-13.627-1.836-18.218,3.346c-4.549,5.182-4.978,12.832-0.999,18.503c0.244,0.368,23.012,33.027,45.432,76.848h-82.314
	c-3.039-5.101-61.424-106.244-48.368-260.468c14.872-3.509,29.845-8.222,44.8-13.893c32.699,17.544,64.605,23.848,93.614,23.848
	c73.624,0,128.438-40.637,129.356-41.371c91.515-74.786,130.703-217.383,132.335-223.421s-0.673-12.444-5.773-16.097
	c-5.1-3.609-11.913-3.752-17.095-0.184c-11.648,7.895-61.18,12.854-100.96,16.811c-39.454,3.957-80.274,8.018-107.427,15.627
	c-63.627,17.869-106.59,48.979-127.622,92.473c-19.747,40.82-14.853,81.6-9.2,104.998c-9.404,3.529-18.77,6.549-28.091,9.141
	c9.099-62.996,30.131-133.375,71.42-208.998c7.896-14.483,19.931-30.539,35.333-47.574c10.547,11.363,24.725,19.279,40.922,21.033
	c2.428,0.244,4.814,0.367,7.182,0.367c19.646,0,38.025-8.771,50.43-23.623c20.013,11.385,45.002,11.771,65.482-0.041
	c19.421-11.139,31.457-31.008,32.926-52.651c22.848-2.55,43.289-16.851,52.979-38.535c9.159-20.44,7.182-43.574-4.304-61.937
	c16.973-15.481,25.029-39.064,20.176-62.32c-4.592-21.909-19.81-39.495-39.902-47.573c4.631-22.521-2.673-46.328-20.257-62.28
	c-16.586-15.035-39.066-20.34-60.304-15.035c-0.469-1.185-1.203-2.855-1.428-3.265c-4.061-7.752-9.527-14.545-16.26-20.135
	c-1.203-1.021-2.509-1.896-5.771-4.121c-1.552-1.101-3.102-2.183-4.979-3.243c-1.714-0.918-3.509-1.673-7.345-3.243
	c-0.55-0.244-3.876-1.592-4.468-1.774c-8.404-2.631-17.096-3.549-25.867-2.795c-1.592,0.164-3.143,0.471-7.019,1.203
	c-1.917,0.326-3.794,0.674-5.467,1.185c-1.958,0.551-3.795,1.284-7.608,2.876c-0.593,0.225-4.02,1.693-4.55,1.959
	c-3.754,1.979-7.304,4.305-11.118,7.303c-3.183,2.592-6.1,5.467-8.854,8.711c-19.972-11.301-44.88-11.627-65.342,0.123
	c-19.421,11.158-31.457,31.049-32.926,52.672c-22.827,2.551-43.248,16.871-52.959,38.537c-9.18,20.44-7.181,43.554,4.325,61.914
	c-16.993,15.482-25.071,39.065-20.196,62.32c4.591,21.91,19.789,39.495,39.902,47.594c-4.609,22.48,2.693,46.31,20.299,62.263
	c12.975,11.771,29.701,17.34,46.431,16.769c-15.076,17.178-27.479,33.681-35.781,48.938
	c-30.151,55.244-50.144,107.713-62.935,156.754c-0.634-0.653-1.246-1.306-1.877-1.959c25.174-120.829-70.748-202.082-71.707-202.797
	c-94.289-71.235-242.127-75.562-248.391-75.726c-6.385-0.285-11.954,3.59-14.259,9.426c-2.306,5.834-0.775,12.465,3.854,16.666
	c10.444,9.445,26.969,56.365,40.229,94.084c13.179,37.414,26.784,76.113,40.597,100.654c32.415,57.65,72.807,92.004,120.054,102.163
	c10.14,2.183,19.951,3.101,29.376,3.101c37.087,0,67.26-14.279,82.313-22.99c4.101,4.201,8.14,8.404,12.077,12.586
	c-11.936,60.467-13.117,114.791-8.486,161.446c-2.856-0.572-5.855-0.653-8.69,0.489c-4.202,1.774-97.857,43.023-148.39,146.899
	c21.664-173.236,122.48-250.042,123.563-250.838c5.795-4.304,7.732-12.117,4.57-18.585c-3.162-6.508-10.486-9.893-17.4-7.914
	c-171.441,46.899-195.452,233.58-197.9,259.12c-32.559-56.12-62.954-99.98-90.413-129.418
	c-31.844-34.169-84.862-72.583-138.188-77.806c-6.854-0.632-12.853,3.143-15.342,9.282c-2.509,6.141-0.652,13.198,4.528,17.341
	c0.816,0.672,67.076,55.038,124.583,149.286c-15.749-12.546-32.518-24.215-51.204-34.088c-6.079-3.183-13.668-1.836-18.237,3.346
	c-4.568,5.182-4.998,12.831-1.021,18.503c0.267,0.367,22.971,32.946,45.432,76.847h-1.429c-45.206,0-81.987,30.294-81.987,67.524
	c0,22.664,14.179,43.063,36.699,55.549l48.695,216.873c1.53,6.814,7.608,11.648,14.605,11.648h798.171
	c7.019,0,13.076-4.855,14.627-11.648l48.267-214.914c24.704-12.159,40.229-33.518,40.229-57.508
	c0-30.192-24.316-55.528-57.568-64.138c16.973-55.305,42.514-103.122,76.969-141.535
	C3278.729,8326.275,3279.137,8318.544,3275.077,8312.832z M2819.301,8075.764c17.217-35.291,53.733-60.996,108.63-76.397
	c24.604-6.896,64.097-10.853,102.326-14.667c35.271-3.509,62.812-6.426,82.987-10.588
	c-15.586,44.021-52.185,130.417-112.977,180.091c-0.855,0.653-78.581,56.896-167.137,25.052
	c19.319-9.241,38.188-19.646,56.427-30.661c7.405-1.856,54.224-12.832,92.208-1.733c8.059,2.266,16.301-2.285,18.544-10.24
	c2.306-7.937-2.265-16.238-10.2-18.545c-14.933-4.283-30.539-5.752-45.287-5.834c5.752-4.101,11.342-8.14,16.789-12.179
	c13.811-3.142,46.694-9.101,69.768-0.592c7.854,2.836,16.381-1.144,19.217-8.896c2.877-7.752-1.121-16.36-8.854-19.217
	c-11.221-4.119-23.645-5.67-35.74-5.955c29.375-24.153,48.368-42.168,50.571-44.311c5.978-5.732,6.181-15.218,0.469-21.154
	c-5.813-5.977-15.259-6.14-21.175-0.447c-0.551,0.51-19.4,18.379-49.082,42.695c3.121-8.689,5.671-17.096,6.834-24.031
	c1.346-8.16-4.184-15.871-12.322-17.237c-8.282-1.487-15.83,4.203-17.258,12.302c-2.918,17.688-20.155,54.427-26.562,67.198
	c-5.631,4.101-11.465,8.24-17.4,12.383c5.915-14.24,11.179-28.785,12.974-39.517c1.348-8.139-4.182-15.852-12.361-17.196
	c-8.486-1.388-15.871,4.203-17.219,12.342c-2.978,18.258-21.479,57.224-30.559,75.071c-19.992,12.078-40.779,23.276-61.832,32.865
	C2807.102,8136.82,2804.714,8105.67,2819.301,8075.764z M3010.795,7892.326c-14.341,8.182-32.252,5.609-43.799-6.182
	c-3.469-3.508-8.486-5.06-13.321-4.265c-4.896,0.878-8.976,4.103-11.036,8.608c-6.467,14.465-20.931,22.931-36.863,21.338
	c-14.993-1.61-26.906-12.688-30.619-27.192l50.959-105.021c6.019,1.612,12.424,2.185,19.013,1.349
	c4.08-0.53,7.528-2.367,11.18-3.815l71.849,79.539C3029.89,7871.07,3023.382,7885.105,3010.795,7892.326z M3098.128,7709.012
	c3.386,16.076-4.591,32.396-19.38,39.76c-4.468,2.226-7.528,6.447-8.181,11.363c-0.653,4.916,1.122,9.813,4.772,13.139
	c11.751,10.627,15.342,27.355,8.936,41.615c-6.1,13.606-20.358,21.42-34.7,20.746l-69.87-77.314
	c5.957-9.363,9.364-20.439,7.813-32.313c-0.244-1.857-1.306-3.326-1.733-5.102l83.967-39.413
	C3083.868,7684.328,3095.148,7694.834,3098.128,7709.012z M2982.48,7599.057c0.406,5.121,3.386,9.67,7.936,12.058
	c4.549,2.427,10.037,2.284,14.422-0.245c13.75-7.895,30.743-6.161,42.33,4.346c11.098,10.059,14.239,25.787,8.956,39.598
	l-85.844,40.289c-6.813-5.752-15.116-9.117-24.174-10.484l-29.661-98.574c0.163-0.265,2.509-3.713,2.591-3.854
	c1.511-1.795,3.184-3.468,5.263-5.142c1.795-1.469,3.754-2.732,5.855-3.813l4.549-1.815l4.143-1.203
	c0.04-0.021,4.712-0.918,4.813-0.938c4.773-0.39,9.527,0.062,15.219,1.998c0.246,0.103,3.306,1.408,3.551,1.49l3.794,2.08
	l3.938,2.713c3.673,3.062,6.772,6.896,9.322,12.017c0.041,0.184,2.122,5.305,2.226,5.508 M2772.359,7666.254
	c6.711-14.934,22.645-23.378,39.086-20.746c4.855,0.814,9.813-0.836,13.239-4.407c3.47-3.55,4.896-8.588,3.877-13.442
	c-3.265-15.483,3.673-31.11,17.218-38.883c13.442-7.711,30.05-5.528,41.555,4.527l28.846,95.9
	c-12.057,6.345-21.073,17.155-24.643,30.231l-111.608-19.338c-1.632-0.287-3.243-0.123-4.794,0.122
	C2768.688,7690.143,2767.321,7677.516,2772.359,7666.254z M2809.488,7865.93c-12.18-11.017-15.32-28.928-7.691-43.574
	c2.307-4.405,2.266-9.629-0.041-13.994c-2.346-4.365-6.711-7.283-11.606-7.834c-15.748-1.692-28.458-13.098-31.66-28.396
	c-3.387-16.075,4.61-32.396,19.399-39.759c0.877-0.431,1.407-1.267,2.184-1.856l114.097,19.768c1.816,4.488,4.102,8.486,7.06,12.158
	l-52.999,109.201C2835.213,7877.436,2820.116,7875.578,2809.488,7865.93z M2611.873,8123.785
	c-38.494-8.283-72.216-37.74-100.245-87.537c-12.526-22.297-25.726-59.73-38.435-95.939c-11.791-33.438-21.135-59.508-29.968-78.133
	c46.532,4.754,139.209,19.951,201.757,67.197c0.795,0.652,72.094,61.385,64.016,153.266c-12.077-11.729-24.357-23.397-36.7-34.803
	c-5.304-11.098-26.355-58.018-23.356-100.611c0.591-8.264-5.651-15.402-13.894-15.975c-8.364-0.57-15.401,5.65-15.974,13.893
	c-1.469,20.973,1.938,42.045,6.69,60.793c-6.304-5.528-12.464-10.936-18.543-16.178c-6.141-12.832-22.42-50.184-18.259-79.498
	c1.143-8.182-4.549-15.75-12.75-16.934c-8.2-1.183-15.749,4.569-16.932,12.75c-2.122,14.955-0.185,30.785,3.121,45.595
	c-33.518-27.968-56.528-46.104-57.12-46.554c-6.468-5.078-15.912-3.998-21.013,2.551c-5.1,6.508-3.979,15.912,2.551,21.012
	c0.57,0.449,23.867,18.809,57.608,46.98c-12.321-1.836-24.438-3.101-33.762-2.732c-8.282,0.389-14.647,7.426-14.239,15.667
	c0.367,8.282,8.1,14.913,15.667,14.239c20.177-0.674,63.648,9.037,79.724,13.178c5.161,4.488,10.444,9.141,15.771,13.813
	c-17.483-3.244-35.313-5.732-47.777-5.244c-8.282,0.39-14.646,7.428-14.239,15.668c0.367,8.283,8.1,14.443,15.668,14.239
	c22.072-0.755,71.073,10.812,91.841,16.341c14.239,13.157,28.417,26.662,42.167,40.188
	C2677.847,8119.848,2646.736,8131.395,2611.873,8123.785z M3051.004,8442.434c0.367-6.569,9.648-137.803,109.507-205.836
	c-34.23,46.288-73.685,122.379-83.558,233.029h-23.277C3050.453,8454.143,3050.473,8446.513,3051.004,8442.434z M2909.184,8327.336
	c28.805,30.906,61.425,79.295,96.798,142.311h-32.068c-0.164-0.551-0.123-1.122-0.348-1.673
	c-36.189-83.986-85.781-147.614-122.604-187.476C2873.625,8293.737,2894.006,8311.077,2909.184,8327.336z M2897.434,8435.456
	c11.975,10.425,22.5,22.032,32.293,34.17h-14.914C2909.02,8457.672,2903.124,8445.799,2897.434,8435.456z M2724.583,8337.271
	c10.098,63.688,29.376,109.568,40.8,132.376h-112.117C2669.441,8418.423,2693.229,8373.889,2724.583,8337.271z M2659.67,8377.643
	c-15.688,27.907-28.009,58.874-37.76,92.004h-32.375C2608.67,8429.52,2635.007,8398.961,2659.67,8377.643z M2506.119,8442.434
	c0.082-1.632,9.242-135.885,109.059-205.203c-34.17,46.328-73.277,122.236-83.149,232.396h-23.216
	C2505.568,8454.184,2505.568,8446.554,2506.119,8442.434z M2364.299,8327.336c28.784,30.886,61.385,79.315,96.736,142.311h-32.048
	c-0.163-0.551-0.122-1.122-0.347-1.673c-36.189-83.986-85.763-147.573-122.543-187.435
	C2328.721,8293.737,2349.102,8311.077,2364.299,8327.336z M2352.549,8435.456c11.994,10.425,22.501,22.032,32.293,34.17h-14.912
	C2364.136,8457.672,2358.24,8445.799,2352.549,8435.456z M3224.73,8537.171c0,12.852-9.67,24.806-25.053,31.763
	c-6.12,0.796-11.32,5.12-12.75,11.403l-47.39,211.019h-774.2l-40.086-178.5l-7.303-32.519c-0.145-0.592-0.511-1.04-0.714-1.591
	c-0.267-0.878-0.675-1.652-1.103-2.469c-0.388-0.673-0.756-1.347-1.245-1.938c-0.918-1.224-2.02-2.224-3.305-3.121
	c-0.122-0.082-0.226-0.163-0.347-0.245c-0.734-0.489-1.326-1.142-2.184-1.51c-15.892-6.896-25.766-19.257-25.766-32.252
	c0-20.4,23.808-37.597,52.021-37.597h837.38C3200.924,8499.553,3224.73,8516.771,3224.73,8537.171z M3166.835,8469.646h-32.396
	c19.136-40.127,45.491-70.686,70.154-92.004C3188.928,8405.529,3176.605,8436.518,3166.835,8469.646z"/>
<path fill="#418679" stroke="#707070" stroke-miterlimit="10" d="M2283.842,8509.305l24.153-13.995l19.38-11.22h595.843
	l263.548,12.607c0,0,119.178,14.893,16.034,88.23l-54.998,217.709h-788.338l-56.671-199.92
	C2302.771,8602.715,2267.563,8513.038,2283.842,8509.305z"/>
<path fill="#418679" stroke="#707070" stroke-miterlimit="10" d="M2312.85,8588.211l890.072-10.403l34.354-46.92l-1.062-31.926
	l-934.522-1.143C2301.712,8497.819,2229.129,8465.057,2312.85,8588.211z"/>
<polygon fill="#418679" stroke="#707070" stroke-miterlimit="10" points="2332.189,8427.562 2364.278,8483.723 2393.695,8477.031 
	2354.936,8416.198 "/>
<polygon fill="#418679" stroke="#707070" stroke-miterlimit="10" points="3122.424,8454.306 3226.709,8347.349 3174.566,8477.031 
	3107.716,8477.031 "/>
<path fill="#418679" stroke="#707070" stroke-miterlimit="10" d="M3087.643,8484.09c0,0,42.778-246.391,102.959-267.791
	c60.158-21.4-6.691,0-6.691,0s-159.12,44.125-141.739,260.732L3087.643,8484.09z"/>
<path fill="#418679" stroke="#707070" stroke-miterlimit="10" d="M3016.793,8470.36c0,0-100.287-185.864-188.537-215.261
	l137.721,221.952L3016.793,8470.36z"/>
<polygon fill="#418679" stroke="#707070" stroke-miterlimit="10" points="2941.904,8463.669 2859.02,8403.489 2900.451,8493.861 "/>
<path fill="#418679" stroke="#707070" stroke-miterlimit="10" d="M2559.506,8470.36c4.021,0,104.285-114.994,104.285-114.994
	l-30.742,121.665L2559.506,8470.36z"/>
<path fill="#418679" stroke="#707070" stroke-miterlimit="10" d="M2645.084,8228.335c0,0-84.189,139.883-106.957,248.696h-52.143
	C2485.965,8477.031,2510.036,8224.337,2645.084,8228.335z"/>
<path fill="#418679" stroke="#707070" stroke-miterlimit="10" d="M2468.584,8456.979c0,0-129.643-202.572-180.5-201.899
	l124.359,225.971h56.159v-24.071H2468.584z"/>
<path fill="#418679" stroke="#707070" stroke-miterlimit="10" d="M2800.186,8168.176c0,0-40.105-172.482,185.864-197.881
	c0,0,142.902-0.081,151.083-16.034C3137.133,7954.24,3030.154,8296.532,2800.186,8168.176z"/>
<path fill="#418679" stroke="#707070" stroke-miterlimit="10" d="M2727.97,8089.289c2.407-3.488,38.78-213.936-291.476-243.352
	c0,0-5.346,154.569,101.611,250.451C2538.105,8096.367,2647.757,8205.609,2727.97,8089.289z"/>
<path fill="#418679" stroke="#707070" stroke-miterlimit="10" d="M3137.133,7954.24c0,0-328.93,225.971-346.311,225.971
	c0,0-20.055-169.44,151.082-202.388L3137.133,7954.24z"/>
<path fill="#418679" stroke="#707070" stroke-miterlimit="10" d="M2711.936,8113.34l-294.168-267.424
	C2417.768,7845.938,2491.309,8210.954,2711.936,8113.34z"/>
<path fill="#418679" stroke="#707070" stroke-miterlimit="10" d="M2850.98,7883.371c0,0,23.338,78.887,112.629,12.036
	c0,0,55.183,34.763,80.58-41.453c0,0,82.905-17.38,42.127-89.576c0,0,58.832-48.144-14.709-98.94c0,0,5.345-75.541-68.851-78.213
	c0,0-72.195-55.487-99.613-12.037c0,0-84.23-8.688-86.903,48.146c0,0-79.561,20.054-53.488,88.924c0,0-38.107,64.853,20.053,102.959
	C2782.805,7815.174,2782.805,7901.425,2850.98,7883.371z"/>
<path fill="#418679" stroke="#707070" stroke-miterlimit="10" d="M2955.287,7694.834"/>
<ellipse transform="matrix(-0.245 0.9695 -0.9695 -0.245 11124.0449 6673.2373)" fill="#418679" stroke="#707070" stroke-miterlimit="10" cx="2963.691" cy="7667.944" rx="52.445" ry="5.222"/>
<ellipse transform="matrix(-0.3239 0.9461 -0.9461 -0.3239 11302.3359 7423.0508)" fill="#418679" stroke="#707070" stroke-miterlimit="10" cx="2998.91" cy="7749.854" rx="5.223" ry="52.449"/>
<ellipse transform="matrix(-0.9987 0.0507 -0.0507 -0.9987 6274.8462 15442.4141)" fill="#418679" stroke="#707070" stroke-miterlimit="10" cx="2941.627" cy="7800.767" rx="5.222" ry="52.447"/>
<ellipse transform="matrix(-0.7071 0.7072 -0.7072 -0.7071 10363.0342 11094.6494)" fill="#418679" stroke="#707070" stroke-miterlimit="10" cx="2883.525" cy="7693.78" rx="5.222" ry="52.448"/>
<ellipse transform="matrix(-0.7071 0.7072 -0.7072 -0.7071 10410.0098 11233.1113)" fill="#418679" stroke="#707070" stroke-miterlimit="10" cx="2878.334" cy="7772.74" rx="52.452" ry="5.223"/>
<circle opacity="0.16" fill="#418679" stroke="#707070" stroke-miterlimit="10" enable-background="new    " cx="2938.375" cy="7728.862" r="71.849"/>
<path fill="#418679" stroke="#707070" stroke-miterlimit="10" d="M3275.077,8312.832c-4.061-5.691-11.403-7.732-17.974-5.142
	c-4.223,1.775-97.979,43.064-148.471,147.043c21.646-173.339,122.543-250.206,123.583-250.981
	c5.814-4.304,7.731-12.117,4.591-18.584c-3.142-6.467-10.322-9.895-17.423-7.916c-171.276,46.839-195.411,233.193-197.899,259.061
	c-32.537-56.08-62.935-99.92-90.394-129.356c-31.803-34.17-84.782-72.542-138.147-77.806c-6.732-0.633-12.853,3.142-15.342,9.281
	c-2.509,6.141-0.651,13.199,4.529,17.34c0.815,0.674,67.115,55.061,124.645,149.35c-15.771-12.587-32.578-24.256-51.307-34.15
	c-6.1-3.183-13.627-1.836-18.218,3.346c-4.549,5.182-4.978,12.832-0.999,18.503c0.244,0.368,23.012,33.027,45.432,76.848h-82.314
	c-3.039-5.101-61.424-106.244-48.368-260.468c14.872-3.509,29.845-8.222,44.8-13.893c32.699,17.544,64.605,23.848,93.614,23.848
	c73.624,0,128.438-40.637,129.356-41.371c91.515-74.786,130.703-217.383,132.335-223.421s-0.673-12.444-5.773-16.097
	c-5.1-3.609-11.913-3.752-17.095-0.184c-11.648,7.895-61.18,12.854-100.96,16.811c-39.454,3.957-80.274,8.018-107.427,15.627
	c-63.627,17.869-106.59,48.979-127.622,92.473c-19.747,40.82-14.853,81.6-9.2,104.998c-9.404,3.529-18.77,6.549-28.091,9.141
	c9.099-62.996,30.131-133.375,71.42-208.998c7.896-14.483,19.931-30.539,35.333-47.574c10.547,11.363,24.725,19.279,40.922,21.033
	c2.428,0.244,4.814,0.367,7.182,0.367c19.646,0,38.025-8.771,50.43-23.623c20.013,11.385,45.002,11.771,65.482-0.041
	c19.421-11.139,31.457-31.008,32.926-52.651c22.848-2.55,43.289-16.851,52.979-38.535c9.159-20.44,7.182-43.574-4.304-61.937
	c16.973-15.481,25.029-39.064,20.176-62.32c-4.592-21.909-19.81-39.495-39.902-47.573c4.631-22.521-2.673-46.328-20.257-62.28
	c-16.586-15.035-39.066-20.34-60.304-15.035c-0.469-1.185-1.203-2.855-1.428-3.265c-4.061-7.752-9.527-14.545-16.26-20.135
	c-1.203-1.021-2.509-1.896-5.771-4.121c-1.552-1.101-3.102-2.183-4.979-3.243c-1.714-0.918-3.509-1.673-7.345-3.243
	c-0.55-0.244-3.876-1.592-4.468-1.774c-8.404-2.631-17.096-3.549-25.867-2.795c-1.592,0.164-3.143,0.471-7.019,1.203
	c-1.917,0.326-3.794,0.674-5.467,1.185c-1.958,0.551-3.795,1.284-7.608,2.876c-0.593,0.225-4.02,1.693-4.55,1.959
	c-3.754,1.979-7.304,4.305-11.118,7.303c-3.183,2.592-6.1,5.467-8.854,8.711c-19.972-11.301-44.88-11.627-65.342,0.123
	c-19.421,11.158-31.457,31.049-32.926,52.672c-22.827,2.551-43.248,16.871-52.959,38.537c-9.18,20.44-7.181,43.554,4.325,61.914
	c-16.993,15.482-25.071,39.065-20.196,62.32c4.591,21.91,19.789,39.495,39.902,47.594c-4.609,22.48,2.693,46.31,20.299,62.263
	c12.975,11.771,29.701,17.34,46.431,16.769c-15.076,17.178-27.479,33.681-35.781,48.938
	c-30.151,55.244-50.144,107.713-62.935,156.754c-0.634-0.653-1.246-1.306-1.877-1.959c25.174-120.829-70.748-202.082-71.707-202.797
	c-94.289-71.235-242.127-75.562-248.391-75.726c-6.385-0.285-11.954,3.59-14.259,9.426c-2.306,5.834-0.775,12.465,3.854,16.666
	c10.444,9.445,26.969,56.365,40.229,94.084c13.179,37.414,26.784,76.113,40.597,100.654c32.415,57.65,72.807,92.004,120.054,102.163
	c10.14,2.183,19.951,3.101,29.376,3.101c37.087,0,67.26-14.279,82.313-22.99c4.101,4.201,8.14,8.404,12.077,12.586
	c-11.936,60.467-13.117,114.791-8.486,161.446c-2.856-0.572-5.855-0.653-8.69,0.489c-4.202,1.774-97.857,43.023-148.39,146.899
	c21.664-173.236,122.48-250.042,123.563-250.838c5.795-4.304,7.732-12.117,4.57-18.585c-3.162-6.508-10.486-9.893-17.4-7.914
	c-171.441,46.899-195.452,233.58-197.9,259.12c-32.559-56.12-62.954-99.98-90.413-129.418
	c-31.844-34.169-84.862-72.583-138.188-77.806c-6.854-0.632-12.853,3.143-15.342,9.282c-2.509,6.141-0.652,13.198,4.528,17.341
	c0.816,0.672,67.076,55.038,124.583,149.286c-15.749-12.546-32.518-24.215-51.204-34.088c-6.079-3.183-13.668-1.836-18.237,3.346
	c-4.568,5.182-4.998,12.831-1.021,18.503c0.267,0.367,22.971,32.946,45.432,76.847h-1.429c-45.206,0-81.987,30.294-81.987,67.524
	c0,22.664,14.179,43.063,36.699,55.549l48.695,216.873c1.53,6.814,7.608,11.648,14.605,11.648h798.171
	c7.019,0,13.076-4.855,14.627-11.648l48.267-214.914c24.704-12.159,40.229-33.518,40.229-57.508
	c0-30.192-24.316-55.528-57.568-64.138c16.973-55.305,42.514-103.122,76.969-141.535
	C3278.729,8326.275,3279.137,8318.544,3275.077,8312.832z M2819.301,8075.764c17.217-35.291,53.733-60.996,108.63-76.397
	c24.604-6.896,64.097-10.853,102.326-14.667c35.271-3.509,62.812-6.426,82.987-10.588
	c-15.586,44.021-52.185,130.417-112.977,180.091c-0.855,0.653-78.581,56.896-167.137,25.052
	c19.319-9.241,38.188-19.646,56.427-30.661c7.405-1.856,54.224-12.832,92.208-1.733c8.059,2.266,16.301-2.285,18.544-10.24
	c2.306-7.937-2.265-16.238-10.2-18.545c-14.933-4.283-30.539-5.752-45.287-5.834c5.752-4.101,11.342-8.14,16.789-12.179
	c13.811-3.142,46.694-9.101,69.768-0.592c7.854,2.836,16.381-1.144,19.217-8.896c2.877-7.752-1.121-16.36-8.854-19.217
	c-11.221-4.119-23.645-5.67-35.74-5.955c29.375-24.153,48.368-42.168,50.571-44.311c5.978-5.732,6.181-15.218,0.469-21.154
	c-5.813-5.977-15.259-6.14-21.175-0.447c-0.551,0.51-19.4,18.379-49.082,42.695c3.121-8.689,5.671-17.096,6.834-24.031
	c1.346-8.16-4.184-15.871-12.322-17.237c-8.282-1.487-15.83,4.203-17.258,12.302c-2.918,17.688-20.155,54.427-26.562,67.198
	c-5.631,4.101-11.465,8.24-17.4,12.383c5.915-14.24,11.179-28.785,12.974-39.517c1.348-8.139-4.182-15.852-12.361-17.196
	c-8.486-1.388-15.871,4.203-17.219,12.342c-2.978,18.258-21.479,57.224-30.559,75.071c-19.992,12.078-40.779,23.276-61.832,32.865
	C2807.102,8136.82,2804.714,8105.67,2819.301,8075.764z M3010.795,7892.326c-14.341,8.182-32.252,5.609-43.799-6.182
	c-3.469-3.508-8.486-5.06-13.321-4.265c-4.896,0.878-8.976,4.103-11.036,8.608c-6.467,14.465-20.931,22.931-36.863,21.338
	c-14.993-1.61-26.906-12.688-30.619-27.192l50.959-105.021c6.019,1.612,12.424,2.185,19.013,1.349
	c4.08-0.53,7.528-2.367,11.18-3.815l71.849,79.539C3029.89,7871.07,3023.382,7885.105,3010.795,7892.326z M3098.128,7709.012
	c3.386,16.076-4.591,32.396-19.38,39.76c-4.468,2.226-7.528,6.447-8.181,11.363c-0.653,4.916,1.122,9.813,4.772,13.139
	c11.751,10.627,15.342,27.355,8.936,41.615c-6.1,13.606-20.358,21.42-34.7,20.746l-69.87-77.314
	c5.957-9.363,9.364-20.439,7.813-32.313c-0.244-1.857-1.306-3.326-1.733-5.102l83.967-39.413
	C3083.868,7684.328,3095.148,7694.834,3098.128,7709.012z M2982.48,7599.057c0.406,5.121,3.386,9.67,7.936,12.058
	c4.549,2.427,10.037,2.284,14.422-0.245c13.75-7.895,30.743-6.161,42.33,4.346c11.098,10.059,14.239,25.787,8.956,39.598
	l-85.844,40.289c-6.813-5.752-15.116-9.117-24.174-10.484l-29.661-98.574c0.163-0.265,2.509-3.713,2.591-3.854
	c1.511-1.795,3.184-3.468,5.263-5.142c1.795-1.469,3.754-2.732,5.855-3.813l4.549-1.815l4.143-1.203
	c0.04-0.021,4.712-0.918,4.813-0.938c4.773-0.39,9.527,0.062,15.219,1.998c0.246,0.103,3.306,1.408,3.551,1.49l3.794,2.08
	l3.938,2.713c3.673,3.062,6.772,6.896,9.322,12.017c0.041,0.184,2.122,5.305,2.226,5.508 M2772.359,7666.254
	c6.711-14.934,22.645-23.378,39.086-20.746c4.855,0.814,9.813-0.836,13.239-4.407c3.47-3.55,4.896-8.588,3.877-13.442
	c-3.265-15.483,3.673-31.11,17.218-38.883c13.442-7.711,30.05-5.528,41.555,4.527l28.846,95.9
	c-12.057,6.345-21.073,17.155-24.643,30.231l-111.608-19.338c-1.632-0.287-3.243-0.123-4.794,0.122
	C2768.688,7690.143,2767.321,7677.516,2772.359,7666.254z M2809.488,7865.93c-12.18-11.017-15.32-28.928-7.691-43.574
	c2.307-4.405,2.266-9.629-0.041-13.994c-2.346-4.365-6.711-7.283-11.606-7.834c-15.748-1.692-28.458-13.098-31.66-28.396
	c-3.387-16.075,4.61-32.396,19.399-39.759c0.877-0.431,1.407-1.267,2.184-1.856l114.097,19.768c1.816,4.488,4.102,8.486,7.06,12.158
	l-52.999,109.201C2835.213,7877.436,2820.116,7875.578,2809.488,7865.93z M2611.873,8123.785
	c-38.494-8.283-72.216-37.74-100.245-87.537c-12.526-22.297-25.726-59.73-38.435-95.939c-11.791-33.438-21.135-59.508-29.968-78.133
	c46.532,4.754,139.209,19.951,201.757,67.197c0.795,0.652,72.094,61.385,64.016,153.266c-12.077-11.729-24.357-23.397-36.7-34.803
	c-5.304-11.098-26.355-58.018-23.356-100.611c0.591-8.264-5.651-15.402-13.894-15.975c-8.364-0.57-15.401,5.65-15.974,13.893
	c-1.469,20.973,1.938,42.045,6.69,60.793c-6.304-5.528-12.464-10.936-18.543-16.178c-6.141-12.832-22.42-50.184-18.259-79.498
	c1.143-8.182-4.549-15.75-12.75-16.934c-8.2-1.183-15.749,4.569-16.932,12.75c-2.122,14.955-0.185,30.785,3.121,45.595
	c-33.518-27.968-56.528-46.104-57.12-46.554c-6.468-5.078-15.912-3.998-21.013,2.551c-5.1,6.508-3.979,15.912,2.551,21.012
	c0.57,0.449,23.867,18.809,57.608,46.98c-12.321-1.836-24.438-3.101-33.762-2.732c-8.282,0.389-14.647,7.426-14.239,15.667
	c0.367,8.282,8.1,14.913,15.667,14.239c20.177-0.674,63.648,9.037,79.724,13.178c5.161,4.488,10.444,9.141,15.771,13.813
	c-17.483-3.244-35.313-5.732-47.777-5.244c-8.282,0.39-14.646,7.428-14.239,15.668c0.367,8.283,8.1,14.443,15.668,14.239
	c22.072-0.755,71.073,10.812,91.841,16.341c14.239,13.157,28.417,26.662,42.167,40.188
	C2677.847,8119.848,2646.736,8131.395,2611.873,8123.785z M3051.004,8442.434c0.367-6.569,9.648-137.803,109.507-205.836
	c-34.23,46.288-73.685,122.379-83.558,233.029h-23.277C3050.453,8454.143,3050.473,8446.513,3051.004,8442.434z M2909.184,8327.336
	c28.805,30.906,61.425,79.295,96.798,142.311h-32.068c-0.164-0.551-0.123-1.122-0.348-1.673
	c-36.189-83.986-85.781-147.614-122.604-187.476C2873.625,8293.737,2894.006,8311.077,2909.184,8327.336z M2897.434,8435.456
	c11.975,10.425,22.5,22.032,32.293,34.17h-14.914C2909.02,8457.672,2903.124,8445.799,2897.434,8435.456z M2724.583,8337.271
	c10.098,63.688,29.376,109.568,40.8,132.376h-112.117C2669.441,8418.423,2693.229,8373.889,2724.583,8337.271z M2659.67,8377.643
	c-15.688,27.907-28.009,58.874-37.76,92.004h-32.375C2608.67,8429.52,2635.007,8398.961,2659.67,8377.643z M2506.119,8442.434
	c0.082-1.632,9.242-135.885,109.059-205.203c-34.17,46.328-73.277,122.236-83.149,232.396h-23.216
	C2505.568,8454.184,2505.568,8446.554,2506.119,8442.434z M2364.299,8327.336c28.784,30.886,61.385,79.315,96.736,142.311h-32.048
	c-0.163-0.551-0.122-1.122-0.347-1.673c-36.189-83.986-85.763-147.573-122.543-187.435
	C2328.721,8293.737,2349.102,8311.077,2364.299,8327.336z M2352.549,8435.456c11.994,10.425,22.501,22.032,32.293,34.17h-14.912
	C2364.136,8457.672,2358.24,8445.799,2352.549,8435.456z M3224.73,8537.171c0,12.852-9.67,24.806-25.053,31.763
	c-6.12,0.796-11.32,5.12-12.75,11.403l-47.39,211.019h-774.2l-40.086-178.5l-7.303-32.519c-0.145-0.592-0.511-1.04-0.714-1.591
	c-0.267-0.878-0.675-1.652-1.103-2.469c-0.388-0.673-0.756-1.347-1.245-1.938c-0.918-1.224-2.02-2.224-3.305-3.121
	c-0.122-0.082-0.226-0.163-0.347-0.245c-0.734-0.489-1.326-1.142-2.184-1.51c-15.892-6.896-25.766-19.257-25.766-32.252
	c0-20.4,23.808-37.597,52.021-37.597h837.38C3200.924,8499.553,3224.73,8516.771,3224.73,8537.171z M3166.835,8469.646h-32.396
	c19.136-40.127,45.491-70.686,70.154-92.004C3188.928,8405.529,3176.605,8436.518,3166.835,8469.646z"/>
<g>
	<path fill="#418679" stroke="#707070" stroke-miterlimit="10" d="M575.423,389.554l-35.271,132.252l-40.086,0.938
		C500.065,522.766,506.757,408.261,575.423,389.554z"/>
	<path fill="#418679" stroke="#707070" stroke-miterlimit="10" d="M545.618,292.98c0,0-41.167,138.25-39.147,162.792l-9.343,63.342
		l-38.495,2.121C458.633,521.235,468.567,336.412,545.618,292.98z"/>
	<path fill="#418679" stroke="#707070" stroke-miterlimit="10" d="M473.606,396.225l-12.935,48.939l-59.548-118.483
		C401.146,326.701,456.368,334.78,473.606,396.225z"/>
	<g>
		<path fill="#418679" stroke="#707070" stroke-miterlimit="10" d="M241.964,384.637L206.693,516.89l-40.086,0.938
			C166.607,517.85,173.278,403.323,241.964,384.637z"/>
		<path fill="#418679" stroke="#707070" stroke-miterlimit="10" d="M39.596,393.267L81.09,523.704l40.086-0.938
			C121.176,522.766,109.099,408.688,39.596,393.267z"/>
		<path fill="#418679" stroke="#707070" stroke-miterlimit="10" d="M243.331,442.206l21.236,81.641l40.086-0.938
			C304.654,522.908,305.592,475.356,243.331,442.206z"/>
		<path fill="#418679" stroke="#707070" stroke-miterlimit="10" d="M431.501,384.005L396.23,516.258l-40.087,0.938
			C356.144,517.196,362.834,402.691,431.501,384.005z"/>
		<path fill="#418679" stroke="#707070" stroke-miterlimit="10" d="M363.834,354.874l-21.787,70.911l-12.628-10.792
			C329.398,415.013,340.741,363.421,363.834,354.874z"/>
		<path fill="#418679" stroke="#707070" stroke-miterlimit="10" d="M62.893,295.408c0,0,47.654,136.149,46.777,160.751
			l12.322,62.832l38.556,0.286C160.568,519.298,141.902,335.147,62.893,295.408z"/>
		<path fill="#418679" stroke="#707070" stroke-miterlimit="10" d="M245.881,293.612c0,0,47.654,136.149,46.777,160.752
			l12.322,62.832l38.556,0.286C343.557,517.502,324.911,333.352,245.881,293.612z"/>
		<path fill="#418679" stroke="#707070" stroke-miterlimit="10" d="M135.762,391.002l15.218,48.287l53.876-121.176
			C204.877,318.113,150.083,328.802,135.762,391.002z"/>
		<path fill="#418679" stroke="#707070" stroke-miterlimit="10" d="M604.758,358.158c-2.265-3.244-6.445-4.427-10.077-2.795
			c-38.842,17.401-62.403,47.43-76.684,77.132c16.197-129.009,61.812-156.957,62.281-157.243c3.405-1.836,5.038-5.793,3.957-9.486
			c-1.103-3.692-3.938-6.406-8.467-5.855c-2.509,0.184-56.282,5.916-98.694,124.236c-32.579-74.072-91.453-75.5-94.166-75.521
			c-3.876-0.225-6.916,2.407-7.915,5.957c-1.021,3.529,0.469,7.303,3.59,9.221c0.082,0.041,1.184,0.755,2.999,2.081
			c-18.074,8.997-43.737,23.623-59.303,58.936c-48.021-116.933-102.246-120.136-104.774-120.197
			c-4.264-0.245-7.161,2.489-8.099,6.181c-0.959,3.692,0.836,7.589,4.223,9.323c0.408,0.204,24.745,13.872,46.695,68.973
			c-13.158,5.854-89.332,45.206-94.023,165.791l-4.59-0.021c0.714-19.156,0.489-33.375-0.367-45.003
			c0-0.081,0.041-0.122,0.041-0.204c2.713-113.771,66.77-152.734,69.503-154.346c3.264-1.917,4.794-5.814,3.713-9.425
			c-1.082-3.611-5.019-6.14-8.262-5.834c-2.713,0.143-61.465,4.366-90.515,79.907C87.883,263.767,33.884,260.564,31.375,260.503
			c-4.325-0.163-7.16,2.509-8.119,6.202c-0.938,3.693,0.836,7.589,4.223,9.343c0.571,0.286,47.471,26.071,69.748,154.163
			c-15.667-28.988-40.637-57.854-80.274-73.42c-3.631-1.448-7.834-0.061-9.935,3.285c-2.101,3.346-1.489,7.691,1.408,10.363
			c0.591,0.551,59.935,56.181,57.528,152.225c-0.061,2.203,0.775,4.345,2.326,5.916c1.53,1.57,3.631,2.468,5.855,2.468
			l137.659,0.326c0.326,0.041,0.612,0.163,0.958,0.163c0.143,0,0.306-0.021,0.469-0.04c0.163-0.021,0.286-0.104,0.449-0.123
			l46.471,0.103c0.021,0,0.021,0,0.041,0c0.143,0,0.265,0.021,0.408,0.021c0.02,0,0.041-0.021,0.082-0.021l99.45,0.226
			c0.021,0,0.041,0.02,0.041,0.02c0.122,0,0.245,0.021,0.347,0.021c0.041,0,0.063-0.021,0.103-0.021l40.779,0.104
			c0.041,0,0.062,0.021,0.103,0.021c0.082,0,0.163,0,0.245-0.021l143.655,0.326c0.082,0.021,0.163,0.021,0.226,0.021
			c0.123,0,0.266-0.021,0.408-0.021c0.388-0.021,0.714-0.226,1.102-0.307c0.633-0.143,1.265-0.245,1.836-0.51
			c0.429-0.204,0.775-0.531,1.163-0.796c0.469-0.326,0.938-0.612,1.326-1.04c0.326-0.367,0.53-0.796,0.795-1.204
			c0.307-0.469,0.612-0.896,0.815-1.428c0.185-0.49,0.226-1.021,0.307-1.551c0.082-0.448,0.266-0.836,0.266-1.307
			c0-0.102-0.062-0.184-0.062-0.285c0-0.123,0.062-0.225,0.041-0.325c-6.916-95.452,49.693-154.204,50.286-154.796
			C606.614,365.788,606.981,361.401,604.758,358.158z M189.333,332.189c-14.831,18.768-30.682,47.185-38.821,87.475
			c-1.795-5.467-3.631-10.384-5.426-15.483C155.326,366.032,172.972,344.368,189.333,332.189z M82.416,514.708
			c-0.469-53.224-18.156-94.004-34.66-120.544c46.9,40.208,57.141,105.754,58.895,120.604L82.416,514.708z M145.309,514.851
			l-22.113-0.062c-6.528-108.896-28.479-172.176-48.858-208.284c18.789,21.338,41.126,58.058,61.567,121.074
			C142.718,448.57,147.288,462.688,145.309,514.851z M496.169,515.688l-23.726-0.062c-3.876-46.186-0.163-59.711,4.998-77.643
			l2.224-7.834c17.34-63.484,37.883-100.857,55.61-122.829C516.691,343.959,497.842,407.73,496.169,515.688z M347.637,472.133
			c2.04-69.033,26.603-110.588,47.98-133.926c7.344,7.364,16.197,17.707,24.827,31.579c-30.458,23.909-64.158,67.932-67.749,145.554
			l-4.773-0.021C348.595,496.898,348.452,482.965,347.637,472.133z M419.873,391.981c-19.85,36.985-29.07,79.213-27.092,123.461
			l-23.685-0.063C372.137,453.487,395.597,415.115,419.873,391.981z M435.111,398.306c9.303,21.868,16.789,49.021,19.176,82.519
			c0.021,0.285,0.164,0.51,0.204,0.796c-0.062,9.18,0.408,20.298,1.51,33.986l-46.858-0.104
			C407.144,473.336,416.018,433.23,435.111,398.306z M468.955,408.771c-1.714,5.609-3.447,11.035-5.1,17.074l-1.021,3.61
			c-11.036-44.839-30.702-75.174-47.246-94.105C433.867,345.795,455.512,366.808,468.955,408.771z M360.55,358.791
			c-9.854,17.115-18.544,38.515-23.889,64.974c-1.774-5.427-3.591-10.343-5.406-15.401
			C337.783,384.454,348.656,369.276,360.55,358.791z M321.524,430.129l1.325,4.039c3.896,11.873,6.956,21.543,8.345,38.679
			c0,0.185-0.041,0.348-0.041,0.552c0,0.388,0.143,0.714,0.184,1.061c0.734,10.2,0.815,23.379,0.184,40.821L309,515.218
			c-6.854-107.019-28.581-169.544-48.838-205.122C278.95,331.209,301.247,367.542,321.524,430.129z M232.723,430.659
			c10.057,21.033,18.952,48.369,19.36,84.436l-31.641-0.081C219.015,482.517,224.625,453.997,232.723,430.659z M260.284,457.485
			c16.83,24.052,26.173,46.206,30.334,57.69l-22.195-0.062C268.178,493.145,264.996,473.948,260.284,457.485z M288.823,471.99
			c-10.588-19.014-26.112-41.271-47.777-61.996c9.608-21.012,20.012-35.843,25.725-43.146
			C275.625,393.511,283.642,427.661,288.823,471.99z M233.641,387.493c-15.565,28.52-31.844,72.42-29.539,127.479l-21.379-0.041
			C185.477,448.714,211.059,409.301,233.641,387.493z M536.969,515.769l-24.275-0.062c1.388-17.441,9.344-80.539,53.04-121.645
			C550.535,421.275,535.051,462.81,536.969,515.769z"/>
	</g>
</g>
</svg>
