<svg width="54" height="54" viewBox="0 0 54 54" fill="none" xmlns="http://www.w3.org/2000/svg">
<path d="M28.4906 7.75979C28.4906 7.75979 35.393 1.57351 42.062 3.25385C42.062 3.25385 37.7864 3.40592 35.2773 7.37679C35.2773 7.37679 31.1598 12.1493 28.4925 10.6229C28.4906 10.6248 26.9208 8.75298 28.4906 7.75979Z" fill="#031934"/>
<path d="M39.262 2.53638L27.6249 6.80765C27.6249 6.80765 21.9067 4.47582 29.5709 1.18272C29.5689 1.18272 38.8531 -1.48705 39.262 2.53638Z" fill="black"/>
<path d="M19.5095 18.1085C19.5095 18.1085 10.2929 14.9393 5.58521 15.3974C5.58521 15.3974 13.1163 20.2075 13.8607 20.1324C13.8607 20.1306 19.469 20.8571 19.5095 18.1085Z" fill="#031934"/>
<path d="M48.8469 18.5664C48.8469 18.5664 43.7092 19.4826 38.6891 24.4091C38.6891 24.4091 35.9428 29.2192 31.7462 29.5628C31.7462 29.5628 27.3934 27.1183 31.3142 23.568C31.3142 23.568 39.1192 20.8194 41.0015 19.0245C41.0015 19.0245 46.3359 15.5493 48.8469 18.5664Z" fill="black"/>
<path d="M31.314 30.3643L37.4333 26.431L40.5711 22.7267L45.9442 19.6345C45.9442 19.6345 52.376 18.2977 53.8282 20.9712C53.8282 20.9712 51.1224 18.4517 47.9441 20.2071C47.9441 20.2071 43.6299 24.0635 43.1979 28.6069C43.1979 28.6069 36.8837 36.9298 33.393 33.0359L31.314 30.3643Z" fill="#031934"/>
<path d="M24.3521 45.0445C24.3521 45.0445 20.2635 41.2933 17.469 46.8206C17.469 46.8206 10.7325 52.147 20.2925 53.2059H36.7953C36.7953 53.2059 40.8839 49.7701 37.1483 46.9351C37.1483 46.9351 34.265 42.5569 30.3539 43.8016C30.3539 43.8016 28.0299 40.9216 26.0879 42.2396C26.0879 42.2377 23.7639 43.7284 24.3521 45.0445Z" fill="#418679"/>
<path d="M27.7057 42.9266C27.7057 42.9266 28.8243 42.001 29.3527 43.6907C29.3527 43.6907 35.4123 42.2807 37.9715 48.0371C37.9715 48.0371 43.6782 55.1827 25.5881 52.9786C25.5881 52.9767 28.4405 49.4264 27.7057 42.9266Z" fill="#418679"/>
<path d="M31.7867 2.23584C31.7867 2.23584 26.2729 2.9474 27.8505 4.88871C27.8505 4.88684 30.6218 3.49563 31.7867 2.23584Z" fill="#031934"/>
<path d="M29.6882 9.96177C29.6882 9.96177 32.7431 9.87353 33.8829 6.80762C33.8829 6.80762 31.0228 8.08993 29.6882 9.96177Z" fill="#031934"/>
<path d="M6.05542 28.7238C6.05542 28.7238 15.2335 42.296 22.9401 36.2825C22.9401 36.2825 9.82001 29.0129 6.05542 28.7238Z" fill="#031934"/>
<path d="M23.3818 35.3944C19.1756 25.8005 6.29077 27.4057 6.29077 27.4057L23.3818 35.3944Z" fill="black"/>
<path d="M20.9324 17.673C11.0349 7.95891 4.7998 15.2529 4.7998 15.2529L15.1929 16.2367L20.9324 17.673Z" fill="black"/>
<path d="M53.8495 20.243L53.3944 19.6572C48.4206 14.4265 41.605 17.1921 38.6928 19.3831C37.7825 20.0702 35.8482 20.8644 35.8482 20.8644C31.6728 22.4434 29.4337 24.2833 29.1927 26.3335C28.9979 27.9913 30.1569 29.2286 30.8049 29.7824C30.2939 30.2931 29.7905 30.9164 29.3257 31.6712C29.0789 29.7561 28.4309 27.5445 27.0346 24.8803C27.0018 24.8353 23.8177 20.2824 22.7743 16.1989C22.7126 16.0299 21.3125 12.0478 25.8466 9.37237C26.3596 9.0701 26.8514 8.77909 27.3316 8.49747C26.9651 10.3299 27.7539 11.1147 28.3441 11.4376C28.7471 11.6591 29.2293 11.7568 29.7442 11.7568C31.4973 11.7568 33.6708 10.6228 34.693 9.25784C35.852 7.70892 37.3023 6.27453 38.0603 5.55921C40.174 3.57284 43.7283 4.14923 43.7631 4.15486C44.0427 4.2018 44.3551 4.05348 44.4786 3.78312C44.602 3.51464 44.521 3.19735 44.2819 3.01711C44.2144 2.96642 44.0967 2.89883 43.9733 2.83124C43.8884 2.7599 43.792 2.70169 43.6763 2.67165C43.6686 2.66978 43.6608 2.66978 43.6531 2.6679C42.3841 2.04458 39.7863 1.0589 38.662 0.775403C27.5129 -2.0333 25.5573 3.64231 25.3721 4.29755C25.3548 4.35575 25.3451 4.42146 25.3451 4.48905C25.1677 5.21939 25.2776 5.89716 25.6672 6.44914C25.9064 6.78708 26.2226 7.04618 26.5563 7.24143C26.0741 7.52493 25.5804 7.81594 25.0655 8.11822C19.5035 11.4 21.3318 16.6232 21.3356 16.6232C21.5227 17.3554 21.7734 18.0951 22.0588 18.8236C21.6886 18.5532 21.2778 18.2791 20.8342 18.0013C20.8998 16.5762 20.3925 13.484 15.0504 12.3031C10.5877 11.3249 2.84827 14.2857 0.292903 16.1651C0.287117 16.1688 0.287117 16.1763 0.28326 16.1801C0.154046 16.2796 0.0730452 16.4148 0.0325451 16.5669C0.0248308 16.5894 0.0171165 16.6063 0.0132593 16.6288C-0.00602647 16.7433 -0.00795506 16.8616 0.0325451 16.9799C0.0441166 17.0137 0.0691882 17.04 0.0846168 17.0719C0.0904026 17.085 0.0846169 17.1001 0.0904026 17.1132C0.0981169 17.1245 0.115474 17.1263 0.123188 17.1376C0.209974 17.269 0.329546 17.3685 0.476118 17.423C0.499261 17.4324 0.518547 17.4343 0.54169 17.4418C0.682476 17.4812 0.830977 17.4943 0.983334 17.4455C1.17041 17.3854 1.34205 17.3535 1.52719 17.2972C2.76148 17.04 6.27921 16.7227 11.6407 19.6666C11.7988 19.7548 14.252 21.1085 16.6974 21.1085C18.059 21.1085 19.4148 20.6785 20.3771 19.3887C22.3308 20.6842 23.4127 21.9027 23.6229 22.1542C24.6933 24.1368 25.6942 25.5656 25.7424 25.6276C28.886 31.6317 28.0066 35.0976 27.2332 38.156C27.158 38.4545 27.0905 38.7455 27.0191 39.0403C26.2651 38.0114 25.1407 36.7216 23.7483 35.7641C23.5091 33.3778 22.4677 31.3933 20.6047 29.8782C15.0909 25.3985 4.46249 26.4875 4.01313 26.54C3.99192 26.5419 3.97842 26.5588 3.9572 26.5626C3.84727 26.5832 3.74506 26.6245 3.65442 26.6902C3.63513 26.7034 3.61392 26.7109 3.59656 26.7259C3.51749 26.7954 3.44999 26.878 3.40563 26.9775C3.39599 26.9981 3.39984 27.0207 3.39213 27.0413C3.38827 27.0544 3.37477 27.0601 3.37091 27.0732C3.36513 27.092 3.3767 27.1108 3.37284 27.1314C3.35163 27.246 3.35356 27.3586 3.38441 27.4656C3.3902 27.4825 3.38827 27.4994 3.39406 27.5163C3.43841 27.6346 3.51942 27.736 3.62163 27.8186C3.6332 27.828 3.63513 27.8449 3.64863 27.8524C4.88485 28.7461 7.311 30.8451 8.15765 31.9716C11.2588 36.1133 14.4969 38.3343 17.7851 38.5709C17.9818 38.5859 18.1747 38.5915 18.3618 38.5915C20.6105 38.5915 22.2363 37.6397 23.0308 37.052C24.8919 38.3925 26.2593 40.5103 26.6392 41.1412C26.6354 41.1656 26.6334 41.1881 26.6296 41.2125C25.3799 41.3927 24.2651 42.3465 23.5361 43.4354C22.9036 43.1557 22.2131 42.9999 21.5073 42.9999C19.515 42.9999 17.8063 44.1639 17.0368 45.8273C15.4072 46.5145 14.2095 48.1592 14.2095 49.8114C14.2095 52.1206 16.2557 54 18.7706 54H35.3159C37.8308 54 39.877 52.1206 39.877 49.8114C39.877 48.101 38.8413 46.6553 37.2213 46.0132C36.4422 44.162 34.5753 42.8515 32.398 42.8515C31.7557 42.8515 31.1328 42.9867 30.5427 43.2064C29.9332 42.277 29.102 41.6068 28.1319 41.3289C28.1975 40.7844 28.2746 40.2794 28.3653 39.8645C28.4636 39.4158 28.5794 38.9614 28.697 38.4995C28.8841 37.7617 29.0769 36.9769 29.2254 36.1321C29.2274 36.1245 29.2351 36.1208 29.2351 36.1152C29.6459 33.8228 30.5697 32.2344 31.5359 31.1492C31.8117 32.0298 32.2745 32.8859 32.45 33.1844C33.5146 34.4667 34.3497 35.0431 35.4007 35.0431C35.9562 35.0431 36.5733 34.8817 37.3158 34.5794C40.1296 33.4304 43.4853 29.482 44.2896 27.4825C46.0176 23.1775 47.3579 21.3169 47.3464 21.3169C49.5797 19.0921 52.6789 21.1798 52.8081 21.2699C53.1147 21.4802 53.5255 21.4427 53.784 21.1836C54.0443 20.9339 54.0732 20.5321 53.8495 20.243ZM37.15 4.63737C36.3573 5.38461 34.8492 6.8772 33.6303 8.5031C32.5947 9.88868 30.0354 10.8931 28.9921 10.3205C28.1551 9.86239 28.7144 8.24213 29.0229 7.50804C30.9534 6.37779 32.4134 5.53481 32.9476 5.23253C34.2378 4.49844 36.23 3.83757 38.5578 3.6761C38.0641 3.92769 37.5839 4.22808 37.15 4.63737ZM26.7549 5.72255C26.5736 5.46534 26.5331 5.14805 26.6373 4.75753C26.6508 4.70496 26.6566 4.65239 26.6566 4.59982C26.7588 4.28065 27.1831 3.24053 28.5234 2.39942C30.0084 1.47007 32.9187 0.649612 38.3341 2.01454C38.5154 2.0596 38.7295 2.12343 38.9609 2.19665C36.1548 2.3093 33.7267 3.09033 32.1877 3.96524C31.6246 4.28441 30.0316 5.20625 27.9391 6.43036C27.5148 6.30457 27.0114 6.08679 26.7549 5.72255ZM14.7167 13.7337C17.7003 14.3927 18.9789 15.7877 19.274 17.117C16.248 15.5511 12.0225 14.2801 6.65528 14.7851C9.44787 13.8577 12.5779 13.2606 14.7167 13.7337ZM12.387 18.3936C10.3717 17.2878 8.58772 16.6138 7.04486 16.212C12.2983 15.7464 16.3367 17.0719 19.1081 18.6152C17.249 21.0653 12.441 18.4237 12.387 18.3936ZM19.6423 31.0065C20.8805 32.0147 21.6712 33.282 22.0473 34.7634C17.4958 32.3264 11.0929 29.4783 7.37657 27.8693C10.8654 27.8824 16.3772 28.3537 19.6423 31.0065ZM17.895 37.1158C15.0677 36.9112 12.1999 34.8929 9.37265 31.1173C9.09108 30.7418 8.67643 30.2987 8.21936 29.8425C12.0804 31.5341 17.654 34.0612 21.6384 36.2184C20.8458 36.6934 19.5517 37.2435 17.895 37.1158ZM36.4113 22.2237C36.4981 22.188 38.5463 21.345 39.6147 20.5415C41.0978 19.4244 43.7419 18.1252 46.519 18.1252C47.1014 18.1252 47.6877 18.1852 48.2721 18.3129C45.6106 18.6678 41.3331 19.9182 38.6253 24.2119C37.7922 25.5318 36.6119 26.3654 33.3603 27.9256C32.9958 28.1002 32.4925 28.3856 31.937 28.793C31.6034 28.5339 30.5562 27.6252 30.6892 26.4987C30.8551 25.0756 32.882 23.5586 36.4113 22.2237ZM29.2312 43.9217C28.9844 44.1057 28.7433 44.3028 28.5311 44.5319C28.2515 44.8323 28.2746 45.296 28.5832 45.5683C28.8918 45.8405 29.3682 45.818 29.6478 45.5157C30.3498 44.7609 31.3527 44.3291 32.396 44.3291C34.4403 44.3291 36.1047 45.9494 36.1047 47.9395C36.1047 48.3432 36.4422 48.6736 36.8588 48.6736C37.2483 48.6736 37.5588 48.3807 37.5974 48.0127C38.0738 48.4877 38.3688 49.1035 38.3688 49.8226C38.3688 51.3227 36.9995 52.5431 35.3159 52.5431H18.7706C17.087 52.5431 15.7157 51.3227 15.7157 49.8226C15.7157 49.1298 16.0841 48.437 16.6202 47.8963C16.6742 48.2493 16.9732 48.5253 17.3512 48.5253C17.7658 48.5253 18.1033 48.1967 18.1033 47.7912C18.1033 45.9644 19.6308 44.4774 21.5073 44.4774C22.4716 44.4774 23.3606 44.8567 24.0144 45.5476C24.2941 45.8442 24.7724 45.8649 25.0771 45.5927C25.3837 45.3185 25.403 44.8529 25.1214 44.5563C25.0231 44.4512 24.9035 44.3723 24.7955 44.2765C25.2719 43.5518 25.8774 43.0036 26.4734 42.7764C26.2786 45.2059 26.2439 47.7217 26.2419 47.8775C26.2361 48.2812 26.5698 48.6154 26.9864 48.621C26.9902 48.621 26.9921 48.621 26.996 48.621C27.4087 48.621 27.7443 48.2962 27.7481 47.8963C27.7481 47.8588 27.7829 45.281 27.9776 42.8628C28.4636 43.0675 28.8899 43.4298 29.2312 43.9217ZM42.8856 26.9568C42.2684 28.4982 39.2444 32.21 36.7353 33.2332C35.3602 33.7908 34.9495 33.8697 33.6959 32.379C33.2292 31.5473 32.7914 30.4189 32.8319 29.9702C33.2986 29.6266 33.719 29.3882 34.0257 29.2398C37.582 27.5351 38.8992 26.5794 39.9098 24.9798C41.6532 22.2143 44.2028 20.8832 46.3724 20.2392C46.3146 20.2918 46.2548 20.3256 46.1989 20.3819C46.1391 20.4626 44.7254 22.3739 42.8856 26.9568Z" fill="#418679"/>
</svg>
