<?xml version="1.0" encoding="utf-8"?>
<!-- Generator: Adobe Illustrator 16.0.0, SVG Export Plug-In . SVG Version: 6.00 Build 0)  -->
<!DOCTYPE svg PUBLIC "-//W3C//DTD SVG 1.1//EN" "http://www.w3.org/Graphics/SVG/1.1/DTD/svg11.dtd">
<svg version="1.1" id="Layer_1" xmlns="http://www.w3.org/2000/svg" xmlns:xlink="http://www.w3.org/1999/xlink" x="0px" y="0px"
	 width="1792px" height="1792px" viewBox="0 0 1792 1792" enable-background="new 0 0 1792 1792" xml:space="preserve">
<path fill="#418679" d="M1664,896c0,104-20.333,203.333-61,298s-95.333,176.333-164,245s-150.333,123.333-245,164s-194,61-298,61
	c-114.667,0-223.667-24.167-327-72.5S377.667,1475,305,1387c-4.667-6.667-6.833-14.167-6.5-22.5s3.167-15.167,8.5-20.5l137-138
	c6.667-6,15-9,25-9c10.667,1.333,18.333,5.333,23,12c48.667,63.333,108.333,112.333,179,147s145.667,52,225,52
	c69.333,0,135.5-13.5,198.5-40.5S1212,1304,1258,1258s82.5-100.5,109.5-163.5S1408,965.333,1408,896s-13.5-135.5-40.5-198.5
	S1304,580,1258,534s-100.5-82.5-163.5-109.5S965.333,384,896,384c-65.333,0-128,11.833-188,35.5S594.667,477,548,521l137,138
	c20.667,20,25.333,43,14,69c-11.333,26.667-31,40-59,40H192c-17.333,0-32.333-6.333-45-19s-19-27.667-19-45V256
	c0-28,13.333-47.667,40-59c26-11.333,49-6.667,69,14l130,129c71.333-67.333,152.833-119.5,244.5-156.5S798,128,896,128
	c104,0,203.333,20.333,298,61s176.333,95.333,245,164s123.333,150.333,164,245S1664,792,1664,896z"/>
</svg>
