<?xml version="1.0" encoding="utf-8"?>
<!-- Generator: Adobe Illustrator 16.0.0, SVG Export Plug-In . SVG Version: 6.00 Build 0)  -->
<!DOCTYPE svg PUBLIC "-//W3C//DTD SVG 1.1//EN" "http://www.w3.org/Graphics/SVG/1.1/DTD/svg11.dtd">
<svg version="1.1" id="Слой_1" xmlns="http://www.w3.org/2000/svg" xmlns:xlink="http://www.w3.org/1999/xlink" x="0px" y="0px"
	 width="612px" height="792px" viewBox="0 0 612 792" enable-background="new 0 0 612 792" xml:space="preserve">
<g>
	<path fill="#418679" d="M570.808,378.346H41.192c-9.747,0-17.654,7.907-17.654,17.654c0,9.746,7.907,17.654,17.654,17.654h529.615
		c9.746,0,17.654-7.908,17.654-17.654C588.462,386.253,580.554,378.346,570.808,378.346z"/>
	<path fill="#418679" d="M41.192,272.423h529.615c9.746,0,17.654-7.907,17.654-17.654c0-9.746-7.908-17.654-17.654-17.654H41.192
		c-9.747,0-17.654,7.908-17.654,17.654C23.539,264.516,31.446,272.423,41.192,272.423z"/>
	<path fill="#418679" d="M570.808,519.577H41.192c-9.747,0-17.654,7.907-17.654,17.653s7.907,17.653,17.654,17.653h529.615
		c9.746,0,17.654-7.907,17.654-17.653C588.462,527.484,580.554,519.577,570.808,519.577z"/>
</g>
</svg>
