<svg width="54" height="54" viewBox="0 0 54 54" fill="none" xmlns="http://www.w3.org/2000/svg">
<path d="M24.9029 41.3925H21.3464C20.4032 41.3925 19.4986 41.7787 18.8316 42.466C18.1646 43.1534 17.7899 44.0856 17.7899 45.0577H10.6768C10.2052 45.0577 9.75291 44.8646 9.41942 44.521C9.08594 44.1773 8.89858 43.7112 8.89858 43.2251V38.4787L11.1925 40.8611C11.3579 41.0329 11.5545 41.1692 11.7712 41.2622C11.9879 41.3553 12.2204 41.4032 12.4551 41.4032C12.6899 41.4032 12.9223 41.3553 13.139 41.2622C13.3557 41.1692 13.5524 41.0329 13.7177 40.8611C13.8843 40.6907 14.0166 40.488 14.1069 40.2647C14.1972 40.0414 14.2437 39.8019 14.2437 39.56C14.2437 39.318 14.1972 39.0785 14.1069 38.8552C14.0166 38.6319 13.8843 38.4292 13.7177 38.2588L8.38289 32.7611C8.21377 32.5942 8.01435 32.4635 7.79606 32.3762C7.36312 32.1929 6.87752 32.1929 6.44458 32.3762C6.2263 32.4635 6.02688 32.5942 5.85776 32.7611L0.522972 38.2588C0.188119 38.6039 0 39.0719 0 39.56C0 40.048 0.188119 40.516 0.522972 40.8611C0.857825 41.2062 1.31198 41.4 1.78554 41.4C2.25909 41.4 2.71325 41.2062 3.0481 40.8611L5.34206 38.4787V43.2251C5.34206 44.6832 5.90412 46.0816 6.90458 47.1126C7.90505 48.1436 9.26197 48.7229 10.6768 48.7229H17.7899C17.7899 49.6949 18.1646 50.6272 18.8316 51.3145C19.4986 52.0019 20.4032 52.388 21.3464 52.388H24.9029C25.8462 52.388 26.7508 52.0019 27.4178 51.3145C28.0848 50.6272 28.4595 49.6949 28.4595 48.7229V45.0577C28.4595 44.0856 28.0848 43.1534 27.4178 42.466C26.7508 41.7787 25.8462 41.3925 24.9029 41.3925ZM24.9029 48.7229H21.3464V45.0577H24.9029V48.7229Z" fill="#418679"/>
<path d="M5.17615 29.0149H8.89282C9.87854 29.0149 10.8239 28.6329 11.5209 27.9529C12.2179 27.2729 12.6095 26.3506 12.6095 25.389V21.763C12.6095 20.8014 12.2179 19.8791 11.5209 19.1991C10.8239 18.5191 9.87854 18.1371 8.89282 18.1371V10.8852C8.89282 10.4044 9.08861 9.94327 9.43711 9.60327C9.78562 9.26327 10.2583 9.07226 10.7512 9.07226H15.5642L13.1484 11.411C12.9742 11.5795 12.836 11.7801 12.7416 12.001C12.6473 12.2219 12.5987 12.4589 12.5987 12.6982C12.5987 12.9375 12.6473 13.1745 12.7416 13.3954C12.836 13.6164 12.9742 13.8169 13.1484 13.9854C13.3212 14.1553 13.5267 14.2902 13.7532 14.3823C13.9796 14.4743 14.2225 14.5217 14.4678 14.5217C14.7132 14.5217 14.956 14.4743 15.1825 14.3823C15.409 14.2902 15.6145 14.1553 15.7872 13.9854L21.3623 8.5465C21.5314 8.37408 21.6641 8.17077 21.7525 7.94822C21.9384 7.50684 21.9384 7.01175 21.7525 6.57037C21.6641 6.34782 21.5314 6.14451 21.3623 5.97209L15.7872 0.533179C15.4373 0.19179 14.9627 0 14.4678 0C13.9729 0 13.4983 0.19179 13.1484 0.533179C12.7985 0.874568 12.6019 1.33759 12.6019 1.82039C12.6019 2.30318 12.7985 2.76621 13.1484 3.1076L15.5642 5.44633H10.7512C9.27257 5.44633 7.85455 6.01935 6.80903 7.03935C5.76351 8.05934 5.17615 9.44275 5.17615 10.8852V18.1371C4.19042 18.1371 3.24507 18.5191 2.54806 19.1991C1.85105 19.8791 1.45947 20.8014 1.45947 21.763V25.389C1.45947 26.3506 1.85105 27.2729 2.54806 27.9529C3.24507 28.6329 4.19042 29.0149 5.17615 29.0149ZM5.17615 21.763H8.89282V25.389H5.17615V21.763Z" fill="#418679"/>
<path d="M48.8239 24.9851H45.1072C44.1215 24.9851 43.1762 25.3671 42.4792 26.047C41.7821 26.7269 41.3906 27.6491 41.3906 28.6107V32.2362C41.3906 33.1978 41.7821 34.1199 42.4792 34.7999C43.1762 35.4798 44.1215 35.8618 45.1072 35.8618V43.1129C45.1072 43.5936 44.9115 44.0547 44.563 44.3947C44.2144 44.7347 43.7418 44.9256 43.2489 44.9256H38.4358L40.8517 42.5872C41.2016 42.2458 41.3982 41.7828 41.3982 41.3001C41.3982 40.8173 41.2016 40.3544 40.8517 40.013C40.5017 39.6717 40.0271 39.4799 39.5322 39.4799C39.0374 39.4799 38.5627 39.6717 38.2128 40.013L32.6378 45.4514C32.4686 45.6238 32.336 45.827 32.2476 46.0496C32.0617 46.4909 32.0617 46.9859 32.2476 47.4273C32.336 47.6498 32.4686 47.8531 32.6378 48.0255L38.2128 53.4638C38.3856 53.6337 38.5911 53.7686 38.8176 53.8606C39.044 53.9527 39.2869 54 39.5322 54C39.7776 54 40.0205 53.9527 40.2469 53.8606C40.4734 53.7686 40.6789 53.6337 40.8517 53.4638C41.0258 53.2953 41.1641 53.0948 41.2584 52.8739C41.3528 52.653 41.4013 52.4161 41.4013 52.1767C41.4013 51.9374 41.3528 51.7005 41.2584 51.4796C41.1641 51.2587 41.0258 51.0582 40.8517 50.8897L38.4358 48.5512H43.2489C44.7275 48.5512 46.1455 47.9782 47.191 46.9583C48.2366 45.9385 48.8239 44.5552 48.8239 43.1129V35.8618C49.8096 35.8618 50.755 35.4798 51.452 34.7999C52.149 34.1199 52.5406 33.1978 52.5406 32.2362V28.6107C52.5406 27.6491 52.149 26.7269 51.452 26.047C50.755 25.3671 49.8096 24.9851 48.8239 24.9851ZM48.8239 32.2362H45.1072V28.6107H48.8239V32.2362Z" fill="#418679"/>
<path d="M53.474 13.1334C53.3087 12.9617 53.1121 12.8255 52.8954 12.7325C52.6787 12.6395 52.4463 12.5916 52.2116 12.5916C51.9769 12.5916 51.7445 12.6395 51.5278 12.7325C51.3111 12.8255 51.1145 12.9617 50.9492 13.1334L48.6555 15.5146V10.7705C48.6555 9.3131 48.0935 7.91539 47.0931 6.88485C46.0927 5.85431 44.736 5.27536 43.3212 5.27536H36.209C36.209 4.30376 35.8343 3.37196 35.1674 2.68493C34.5005 1.99791 33.596 1.61194 32.6528 1.61194H29.0967C28.1535 1.61194 27.249 1.99791 26.5821 2.68493C25.9152 3.37196 25.5405 4.30376 25.5405 5.27536V8.93879C25.5405 9.91039 25.9152 10.8422 26.5821 11.5292C27.249 12.2162 28.1535 12.6022 29.0967 12.6022H32.6528C33.596 12.6022 34.5005 12.2162 35.1674 11.5292C35.8343 10.8422 36.209 9.91039 36.209 8.93879H43.3212C43.7928 8.93879 44.2451 9.13177 44.5785 9.47528C44.912 9.81879 45.0993 10.2847 45.0993 10.7705V15.5146L42.8056 13.1334C42.4708 12.7885 42.0167 12.5947 41.5432 12.5947C41.0697 12.5947 40.6156 12.7885 40.2807 13.1334C39.9459 13.4783 39.7578 13.9461 39.7578 14.4339C39.7578 14.9217 39.9459 15.3895 40.2807 15.7344L45.615 21.2296C45.7841 21.3963 45.9835 21.5271 46.2017 21.6142C46.4146 21.7111 46.6447 21.7612 46.8774 21.7612C47.1101 21.7612 47.3402 21.7111 47.5531 21.6142C47.7713 21.5271 47.9707 21.3963 48.1398 21.2296L53.474 15.7344C53.6407 15.5642 53.773 15.3616 53.8632 15.1384C53.9535 14.9151 54 14.6757 54 14.4339C54 14.1921 53.9535 13.9527 53.8632 13.7295C53.773 13.5063 53.6407 13.3037 53.474 13.1334ZM32.6528 8.93879H29.0967V5.27536H32.6528V8.93879Z" fill="#418679"/>
</svg>
