<svg width="54" height="54" viewBox="0 0 54 54" fill="none" xmlns="http://www.w3.org/2000/svg">
<path d="M36.125 11.8125C36.125 16.8521 32.0396 20.9375 27 20.9375C21.9604 20.9375 17.875 16.8521 17.875 11.8125C17.875 6.7729 21.9604 2.6875 27 2.6875C32.0396 2.6875 36.125 6.7729 36.125 11.8125Z" fill="#011327" stroke="#418679" stroke-width="2"/>
<path d="M20.9375 42.1875C20.9375 47.2271 16.8521 51.3125 11.8125 51.3125C6.7729 51.3125 2.6875 47.2271 2.6875 42.1875C2.6875 37.1479 6.7729 33.0625 11.8125 33.0625C16.8521 33.0625 20.9375 37.1479 20.9375 42.1875Z" fill="#011327" stroke="#418679" stroke-width="2"/>
<path d="M51.3125 42.1875C51.3125 47.2271 47.2271 51.3125 42.1875 51.3125C37.1479 51.3125 33.0625 47.2271 33.0625 42.1875C33.0625 37.1479 37.1479 33.0625 42.1875 33.0625C47.2271 33.0625 51.3125 37.1479 51.3125 42.1875Z" fill="#011327" stroke="#418679" stroke-width="2"/>
<path d="M42.1875 43.875C43.1195 43.875 43.875 43.1195 43.875 42.1875C43.875 41.2555 43.1195 40.5 42.1875 40.5C41.2555 40.5 40.5 41.2555 40.5 42.1875C40.5 43.1195 41.2555 43.875 42.1875 43.875Z" fill="#269C4E"/>
<path d="M36.2812 43.875C37.2132 43.875 37.9688 43.1195 37.9688 42.1875C37.9688 41.2555 37.2132 40.5 36.2812 40.5C35.3493 40.5 34.5938 41.2555 34.5938 42.1875C34.5938 43.1195 35.3493 43.875 36.2812 43.875Z" fill="#269C4E"/>
<path d="M48.0938 43.875C49.0257 43.875 49.7812 43.1195 49.7812 42.1875C49.7812 41.2555 49.0257 40.5 48.0938 40.5C47.1618 40.5 46.4062 41.2555 46.4062 42.1875C46.4062 43.1195 47.1618 43.875 48.0938 43.875Z" fill="#269C4E"/>
<path d="M29.9531 13.5C30.8851 13.5 31.6406 12.7445 31.6406 11.8125C31.6406 10.8805 30.8851 10.125 29.9531 10.125C29.0211 10.125 28.2656 10.8805 28.2656 11.8125C28.2656 12.7445 29.0211 13.5 29.9531 13.5Z" fill="#DAAB1B"/>
<path d="M24.0469 13.5C24.9789 13.5 25.7344 12.7445 25.7344 11.8125C25.7344 10.8805 24.9789 10.125 24.0469 10.125C23.1149 10.125 22.3594 10.8805 22.3594 11.8125C22.3594 12.7445 23.1149 13.5 24.0469 13.5Z" fill="#DAAB1B"/>
<path d="M11.8125 43.875C12.7445 43.875 13.5 43.1195 13.5 42.1875C13.5 41.2555 12.7445 40.5 11.8125 40.5C10.8805 40.5 10.125 41.2555 10.125 42.1875C10.125 43.1195 10.8805 43.875 11.8125 43.875Z" fill="#D23D47"/>
<path d="M5.08022 30.407C5.06841 30.1159 5.0625 29.8248 5.0625 29.5312C5.0625 22.566 8.26031 16.1696 13.835 11.9812L14.8483 13.3312C9.70228 17.1973 6.75 23.1018 6.75 29.5312C6.75 29.8029 6.75591 30.0737 6.76603 30.3429L5.08022 30.407Z" fill="#418679"/>
<path d="M27 51.4687C25.2188 51.4687 23.4478 51.2544 21.7358 50.8325L22.14 49.1948C25.3007 49.9728 28.7002 49.9728 31.8608 49.1948L32.265 50.8325C30.5522 51.2544 28.7812 51.4687 27 51.4687Z" fill="#418679"/>
<path d="M48.9198 30.407L47.234 30.3429C47.2441 30.0737 47.25 29.8029 47.25 29.5312C47.25 23.1018 44.2978 17.1973 39.1509 13.3312L40.1642 11.9812C45.7397 16.1696 48.9375 22.566 48.9375 29.5312C48.9375 29.8248 48.9316 30.1159 48.9198 30.407Z" fill="#418679"/>
</svg>
