<?xml version="1.0" encoding="utf-8"?>
<!-- Generator: Adobe Illustrator 16.0.0, SVG Export Plug-In . SVG Version: 6.00 Build 0)  -->
<!DOCTYPE svg PUBLIC "-//W3C//DTD SVG 1.1//EN" "http://www.w3.org/Graphics/SVG/1.1/DTD/svg11.dtd">
<svg version="1.1" id="Layer_1_1_" xmlns="http://www.w3.org/2000/svg" xmlns:xlink="http://www.w3.org/1999/xlink" x="0px" y="0px"
	 width="612px" height="792px" viewBox="0 0 612 792" enable-background="new 0 0 612 792" xml:space="preserve">
<g>
	<circle fill="#418679" cx="306" cy="223.875" r="114.75"/>
</g>
<g>
	<circle fill="#418679" cx="133.875" cy="568.125" r="114.75"/>
</g>
<g>
	<circle fill="#418679" cx="478.125" cy="568.125" r="114.75"/>
</g>
<g>
	<circle fill="#E6E6E6" cx="478.125" cy="568.125" r="19.125"/>
</g>
<g>
	<circle fill="#E6E6E6" cx="411.188" cy="568.125" r="19.125"/>
</g>
<g>
	<circle fill="#E6E6E6" cx="545.063" cy="568.125" r="19.125"/>
</g>
<g>
	<circle fill="#FFE9A6" cx="339.469" cy="223.875" r="19.125"/>
</g>
<g>
	<circle fill="#FFE9A6" cx="272.531" cy="223.875" r="19.125"/>
</g>
<g>
	<circle fill="#FF8088" cx="133.875" cy="568.125" r="19.125"/>
</g>
<g>
	<path fill="#418679" d="M306,673.313c-20.187,0-40.258-2.429-59.661-7.21l4.581-18.561c35.821,8.816,74.349,8.816,110.17,0
		l4.58,18.561C346.258,670.884,326.187,673.313,306,673.313z"/>
</g>
<g>
	<path fill="#418679" d="M57.576,434.613c-0.134-3.299-0.201-6.598-0.201-9.926c0-78.938,36.242-151.432,99.421-198.9l11.484,15.3
		C109.959,284.903,76.5,351.821,76.5,424.688c0,3.079,0.067,6.148,0.182,9.199L57.576,434.613z"/>
</g>
<g>
	<path fill="#418679" d="M554.424,434.613l-19.105-0.727c0.114-3.051,0.182-6.12,0.182-9.199c0-72.866-33.459-139.785-91.79-183.6
		l11.484-15.3c63.188,47.468,99.431,119.961,99.431,198.9C554.625,428.016,554.558,431.314,554.424,434.613z"/>
</g>
</svg>
