<?xml version="1.0" encoding="utf-8"?>
<!-- Generator: Adobe Illustrator 16.0.0, SVG Export Plug-In . SVG Version: 6.00 Build 0)  -->
<!DOCTYPE svg PUBLIC "-//W3C//DTD SVG 1.1//EN" "http://www.w3.org/Graphics/SVG/1.1/DTD/svg11.dtd">
<svg version="1.1" id="Layer_1" xmlns="http://www.w3.org/2000/svg" xmlns:xlink="http://www.w3.org/1999/xlink" x="0px" y="0px"
	 width="1792px" height="1792px" viewBox="0 0 1792 1792" enable-background="new 0 0 1792 1792" xml:space="preserve">
<path fill="#418679" d="M1664,256v448c0,17.333-6.333,32.333-19,45s-27.667,19-45,19h-448c-28,0-47.667-13.333-59-40
	c-11.333-26-6.667-49,14-69l138-138c-98.667-91.333-215-137-349-137c-69.333,0-135.5,13.5-198.5,40.5S580,488,534,534
	s-82.5,100.5-109.5,163.5S384,826.667,384,896s13.5,135.5,40.5,198.5S488,1212,534,1258s100.5,82.5,163.5,109.5
	S826.667,1408,896,1408c79.333,0,154.333-17.333,225-52s130.333-83.667,179-147c4.667-6.667,12.333-10.667,23-12
	c9.333,0,17.667,3,25,9l137,138c6,5.333,9.167,12.167,9.5,20.5s-2.167,15.833-7.5,22.5c-72.667,88-160.667,156.167-264,204.5
	s-212.333,72.5-327,72.5c-104,0-203.333-20.333-298-61s-176.333-95.333-245-164c-68.667-68.667-123.333-150.333-164-245
	s-61-194-61-298s20.333-203.333,61-298s95.333-176.333,164-245c68.667-68.667,150.333-123.333,245-164s194-61,298-61
	c98,0,192.833,18.5,284.5,55.5S1353.667,272.667,1425,340l130-129c19.333-20.667,42.667-25.333,70-14
	C1651,208.333,1664,228,1664,256z"/>
</svg>
